G04 EAGLE Gerber RS-274X export*
G75*
%MOMM*%
%FSLAX34Y34*%
%LPD*%
%INBottom Copper*%
%IPPOS*%
%AMOC8*
5,1,8,0,0,1.08239X$1,22.5*%
G01*
%ADD10C,1.508000*%
%ADD11R,2.540000X2.540000*%
%ADD12C,1.524000*%
%ADD13C,1.676400*%
%ADD14C,1.524000*%
%ADD15C,1.016000*%
%ADD16C,0.956400*%
%ADD17C,0.609600*%
%ADD18C,0.508000*%
%ADD19C,1.270000*%
%ADD20C,0.406400*%
%ADD21C,0.950000*%

G36*
X624382Y9172D02*
X624382Y9172D01*
X624433Y9174D01*
X624465Y9192D01*
X624501Y9200D01*
X624540Y9233D01*
X624585Y9257D01*
X624606Y9287D01*
X624634Y9310D01*
X624655Y9357D01*
X624685Y9399D01*
X624693Y9441D01*
X624705Y9469D01*
X624704Y9499D01*
X624712Y9541D01*
X624712Y59215D01*
X624701Y59265D01*
X624699Y59316D01*
X624681Y59348D01*
X624673Y59384D01*
X624640Y59423D01*
X624616Y59468D01*
X624586Y59489D01*
X624563Y59517D01*
X624516Y59538D01*
X624474Y59568D01*
X624432Y59576D01*
X624404Y59588D01*
X624374Y59587D01*
X624332Y59595D01*
X612404Y59595D01*
X612330Y59578D01*
X612256Y59565D01*
X612245Y59558D01*
X612236Y59556D01*
X612207Y59532D01*
X612135Y59484D01*
X609014Y56362D01*
X604748Y54595D01*
X585052Y54595D01*
X580786Y56362D01*
X577522Y59626D01*
X575755Y63892D01*
X575755Y68508D01*
X577522Y72774D01*
X580786Y76038D01*
X585052Y77805D01*
X604748Y77805D01*
X609014Y76038D01*
X612135Y72916D01*
X612200Y72876D01*
X612262Y72832D01*
X612274Y72830D01*
X612283Y72825D01*
X612320Y72821D01*
X612404Y72805D01*
X625381Y72805D01*
X625455Y72822D01*
X625530Y72835D01*
X625540Y72842D01*
X625550Y72844D01*
X625579Y72868D01*
X625650Y72916D01*
X640238Y87504D01*
X643940Y87504D01*
X644014Y87521D01*
X644089Y87534D01*
X644099Y87541D01*
X644109Y87543D01*
X644138Y87567D01*
X644209Y87615D01*
X645373Y88779D01*
X647800Y89785D01*
X663141Y89785D01*
X663178Y89794D01*
X663217Y89792D01*
X663261Y89813D01*
X663309Y89824D01*
X663339Y89849D01*
X663374Y89865D01*
X663405Y89903D01*
X663443Y89934D01*
X663459Y89970D01*
X663483Y89999D01*
X663494Y90047D01*
X663514Y90093D01*
X663513Y90131D01*
X663521Y90169D01*
X663509Y90228D01*
X663507Y90266D01*
X663497Y90284D01*
X663492Y90311D01*
X661967Y93992D01*
X661967Y98608D01*
X663734Y102874D01*
X666998Y106138D01*
X671264Y107905D01*
X690960Y107905D01*
X693661Y106786D01*
X693699Y106780D01*
X693735Y106764D01*
X693784Y106766D01*
X693832Y106758D01*
X693869Y106769D01*
X693908Y106770D01*
X693951Y106794D01*
X693998Y106808D01*
X694026Y106835D01*
X694060Y106853D01*
X694088Y106894D01*
X694124Y106927D01*
X694137Y106963D01*
X694160Y106995D01*
X694171Y107055D01*
X694184Y107090D01*
X694182Y107111D01*
X694187Y107137D01*
X694187Y112586D01*
X694175Y112638D01*
X694173Y112691D01*
X694156Y112721D01*
X694148Y112755D01*
X694114Y112796D01*
X694088Y112842D01*
X694060Y112862D01*
X694038Y112888D01*
X693989Y112910D01*
X693945Y112940D01*
X693911Y112945D01*
X693879Y112959D01*
X693826Y112957D01*
X693774Y112965D01*
X693735Y112954D01*
X693706Y112953D01*
X693678Y112937D01*
X693634Y112925D01*
X692522Y112358D01*
X691013Y111868D01*
X689445Y111619D01*
X681873Y111619D01*
X681873Y121319D01*
X681862Y121369D01*
X681860Y121420D01*
X681842Y121452D01*
X681834Y121488D01*
X681801Y121527D01*
X681777Y121572D01*
X681747Y121593D01*
X681724Y121621D01*
X681677Y121642D01*
X681635Y121671D01*
X681593Y121680D01*
X681565Y121692D01*
X681535Y121691D01*
X681493Y121699D01*
X681111Y121699D01*
X681111Y121701D01*
X681493Y121701D01*
X681543Y121713D01*
X681594Y121714D01*
X681626Y121732D01*
X681662Y121740D01*
X681701Y121773D01*
X681746Y121797D01*
X681767Y121827D01*
X681795Y121851D01*
X681816Y121897D01*
X681846Y121939D01*
X681854Y121981D01*
X681866Y122009D01*
X681866Y122021D01*
X681866Y122023D01*
X681866Y122042D01*
X681873Y122081D01*
X681873Y131781D01*
X689445Y131781D01*
X691013Y131532D01*
X692522Y131042D01*
X693634Y130475D01*
X693686Y130462D01*
X693735Y130441D01*
X693769Y130442D01*
X693803Y130434D01*
X693855Y130445D01*
X693908Y130447D01*
X693938Y130464D01*
X693972Y130471D01*
X694013Y130505D01*
X694060Y130530D01*
X694080Y130558D01*
X694107Y130580D01*
X694129Y130628D01*
X694160Y130672D01*
X694167Y130711D01*
X694179Y130737D01*
X694179Y130765D01*
X694180Y130768D01*
X694180Y130777D01*
X694187Y130814D01*
X694187Y231647D01*
X694181Y231672D01*
X694184Y231698D01*
X694162Y231756D01*
X694148Y231816D01*
X694131Y231836D01*
X694122Y231860D01*
X694077Y231902D01*
X694038Y231950D01*
X694014Y231960D01*
X693995Y231978D01*
X693936Y231995D01*
X693879Y232020D01*
X693854Y232020D01*
X693829Y232027D01*
X693768Y232016D01*
X693706Y232014D01*
X693684Y232002D01*
X693658Y231997D01*
X693587Y231949D01*
X693554Y231931D01*
X693548Y231923D01*
X693538Y231916D01*
X689454Y227831D01*
X688876Y227592D01*
X688869Y227587D01*
X688861Y227586D01*
X688799Y227537D01*
X688735Y227491D01*
X688731Y227484D01*
X688725Y227478D01*
X688691Y227408D01*
X688654Y227338D01*
X688654Y227330D01*
X688650Y227322D01*
X688651Y227244D01*
X688649Y227165D01*
X688653Y227157D01*
X688653Y227149D01*
X688714Y227017D01*
X689262Y226264D01*
X689982Y224850D01*
X690472Y223341D01*
X690721Y221773D01*
X690721Y221741D01*
X673481Y221741D01*
X673431Y221730D01*
X673380Y221728D01*
X673348Y221710D01*
X673312Y221702D01*
X673273Y221669D01*
X673228Y221645D01*
X673207Y221615D01*
X673179Y221592D01*
X673158Y221545D01*
X673129Y221503D01*
X673120Y221461D01*
X673108Y221433D01*
X673109Y221414D01*
X673108Y221413D01*
X673108Y221399D01*
X673101Y221361D01*
X673101Y220979D01*
X673099Y220979D01*
X673099Y221361D01*
X673087Y221411D01*
X673086Y221462D01*
X673068Y221494D01*
X673060Y221530D01*
X673027Y221569D01*
X673003Y221614D01*
X672973Y221635D01*
X672949Y221663D01*
X672903Y221684D01*
X672861Y221714D01*
X672819Y221722D01*
X672791Y221734D01*
X672761Y221733D01*
X672719Y221741D01*
X655239Y221741D01*
X655165Y221724D01*
X655090Y221711D01*
X655080Y221704D01*
X655070Y221702D01*
X655042Y221678D01*
X654970Y221630D01*
X644256Y210916D01*
X644216Y210851D01*
X644172Y210789D01*
X644170Y210777D01*
X644165Y210768D01*
X644161Y210731D01*
X644145Y210647D01*
X644145Y176486D01*
X643139Y174059D01*
X617913Y148833D01*
X615486Y147827D01*
X613322Y147827D01*
X613284Y147818D01*
X613246Y147820D01*
X613201Y147799D01*
X613153Y147788D01*
X613124Y147763D01*
X613089Y147747D01*
X613058Y147709D01*
X613020Y147678D01*
X613004Y147642D01*
X612980Y147613D01*
X612969Y147565D01*
X612949Y147519D01*
X612950Y147481D01*
X612942Y147443D01*
X612954Y147384D01*
X612955Y147346D01*
X612965Y147328D01*
X612971Y147302D01*
X614045Y144708D01*
X614045Y140092D01*
X612278Y135826D01*
X609014Y132562D01*
X604748Y130795D01*
X585052Y130795D01*
X580786Y132562D01*
X577522Y135826D01*
X575755Y140092D01*
X575755Y144708D01*
X576829Y147302D01*
X576836Y147339D01*
X576851Y147375D01*
X576849Y147424D01*
X576857Y147472D01*
X576846Y147509D01*
X576845Y147548D01*
X576821Y147591D01*
X576807Y147638D01*
X576780Y147666D01*
X576762Y147700D01*
X576722Y147728D01*
X576688Y147764D01*
X576652Y147778D01*
X576620Y147800D01*
X576561Y147811D01*
X576525Y147824D01*
X576505Y147822D01*
X576478Y147827D01*
X570837Y147827D01*
X570763Y147810D01*
X570689Y147797D01*
X570678Y147790D01*
X570669Y147788D01*
X570640Y147764D01*
X570568Y147716D01*
X564573Y141721D01*
X562146Y140715D01*
X464157Y140715D01*
X464083Y140698D01*
X464008Y140685D01*
X463998Y140678D01*
X463989Y140676D01*
X463960Y140652D01*
X463888Y140604D01*
X411197Y87912D01*
X409674Y86389D01*
X409673Y86388D01*
X409671Y86387D01*
X409591Y86266D01*
X409078Y85026D01*
X405814Y81762D01*
X401548Y79995D01*
X381852Y79995D01*
X377586Y81762D01*
X374322Y85026D01*
X372555Y89292D01*
X372555Y93908D01*
X374322Y98174D01*
X377586Y101438D01*
X381852Y103205D01*
X401548Y103205D01*
X405740Y101468D01*
X405803Y101458D01*
X405864Y101440D01*
X405887Y101444D01*
X405911Y101440D01*
X405972Y101459D01*
X406034Y101470D01*
X406057Y101485D01*
X406077Y101491D01*
X406104Y101517D01*
X406154Y101551D01*
X415739Y111135D01*
X415746Y111146D01*
X415756Y111154D01*
X415791Y111219D01*
X415830Y111282D01*
X415831Y111295D01*
X415837Y111307D01*
X415840Y111381D01*
X415847Y111455D01*
X415842Y111467D01*
X415842Y111480D01*
X415811Y111548D01*
X415785Y111617D01*
X415775Y111626D01*
X415770Y111637D01*
X415712Y111684D01*
X415658Y111735D01*
X415645Y111738D01*
X415635Y111746D01*
X415563Y111763D01*
X415492Y111784D01*
X415479Y111781D01*
X415466Y111784D01*
X415344Y111759D01*
X409884Y111759D01*
X409822Y111745D01*
X409759Y111738D01*
X409739Y111725D01*
X409715Y111720D01*
X409666Y111679D01*
X409613Y111645D01*
X409598Y111623D01*
X409582Y111610D01*
X409566Y111575D01*
X409533Y111525D01*
X409078Y110426D01*
X405814Y107162D01*
X401548Y105395D01*
X381852Y105395D01*
X377586Y107162D01*
X374322Y110426D01*
X372555Y114692D01*
X372555Y119308D01*
X374117Y123077D01*
X374123Y123115D01*
X374138Y123151D01*
X374137Y123200D01*
X374145Y123248D01*
X374133Y123285D01*
X374132Y123324D01*
X374108Y123367D01*
X374094Y123414D01*
X374068Y123442D01*
X374049Y123476D01*
X374009Y123504D01*
X373975Y123540D01*
X373939Y123553D01*
X373907Y123576D01*
X373848Y123587D01*
X373813Y123600D01*
X373792Y123598D01*
X373765Y123603D01*
X366886Y123603D01*
X364459Y124609D01*
X355626Y133442D01*
X355561Y133482D01*
X355499Y133526D01*
X355487Y133528D01*
X355478Y133533D01*
X355441Y133537D01*
X355357Y133553D01*
X354248Y133553D01*
X350997Y134900D01*
X348508Y137389D01*
X347161Y140640D01*
X347161Y144160D01*
X348508Y147411D01*
X350997Y149900D01*
X354248Y151247D01*
X357768Y151247D01*
X359253Y150632D01*
X359278Y150627D01*
X359301Y150615D01*
X359363Y150614D01*
X359424Y150604D01*
X359448Y150611D01*
X359474Y150610D01*
X359530Y150636D01*
X359589Y150654D01*
X359608Y150672D01*
X359631Y150683D01*
X359670Y150731D01*
X359715Y150773D01*
X359724Y150797D01*
X359740Y150817D01*
X359754Y150878D01*
X359775Y150936D01*
X359773Y150961D01*
X359778Y150986D01*
X359761Y151071D01*
X359760Y151095D01*
X359758Y151098D01*
X359757Y151108D01*
X359752Y151116D01*
X359749Y151128D01*
X358669Y153736D01*
X358669Y157256D01*
X360016Y160507D01*
X362505Y162996D01*
X365756Y164343D01*
X369276Y164343D01*
X372527Y162996D01*
X372988Y162535D01*
X372999Y162528D01*
X373007Y162518D01*
X373072Y162483D01*
X373135Y162444D01*
X373148Y162442D01*
X373160Y162436D01*
X373234Y162434D01*
X373308Y162427D01*
X373320Y162432D01*
X373333Y162431D01*
X373400Y162462D01*
X373470Y162489D01*
X373479Y162498D01*
X373490Y162504D01*
X373537Y162561D01*
X373587Y162616D01*
X373591Y162628D01*
X373599Y162638D01*
X373615Y162710D01*
X373637Y162782D01*
X373634Y162795D01*
X373637Y162807D01*
X373608Y162949D01*
X372555Y165492D01*
X372555Y170108D01*
X373753Y173001D01*
X373759Y173038D01*
X373775Y173072D01*
X373773Y173122D01*
X373781Y173172D01*
X373771Y173208D01*
X373769Y173245D01*
X373746Y173289D01*
X373731Y173338D01*
X373705Y173365D01*
X373687Y173398D01*
X373646Y173427D01*
X373612Y173464D01*
X373577Y173477D01*
X373546Y173498D01*
X373485Y173510D01*
X373449Y173524D01*
X373429Y173522D01*
X373404Y173527D01*
X368015Y173556D01*
X367952Y173542D01*
X367888Y173535D01*
X367869Y173523D01*
X367846Y173517D01*
X367796Y173477D01*
X367742Y173442D01*
X367728Y173421D01*
X367712Y173408D01*
X367696Y173373D01*
X367662Y173321D01*
X366540Y170613D01*
X364051Y168124D01*
X360800Y166777D01*
X357280Y166777D01*
X354029Y168124D01*
X351540Y170613D01*
X350193Y173864D01*
X350193Y176577D01*
X350190Y176589D01*
X350192Y176602D01*
X350171Y176673D01*
X350154Y176745D01*
X350146Y176755D01*
X350142Y176768D01*
X350091Y176822D01*
X350044Y176879D01*
X350032Y176884D01*
X350023Y176894D01*
X349953Y176920D01*
X349885Y176950D01*
X349872Y176949D01*
X349860Y176954D01*
X349787Y176946D01*
X349712Y176943D01*
X349701Y176937D01*
X349688Y176936D01*
X349625Y176896D01*
X349560Y176861D01*
X349553Y176850D01*
X349542Y176843D01*
X349462Y176722D01*
X348138Y173526D01*
X344874Y170262D01*
X340608Y168495D01*
X320912Y168495D01*
X316646Y170262D01*
X313382Y173526D01*
X311615Y177792D01*
X311615Y182408D01*
X313382Y186674D01*
X316646Y189938D01*
X320912Y191705D01*
X340608Y191705D01*
X344874Y189938D01*
X348138Y186674D01*
X349905Y182408D01*
X349905Y178599D01*
X349908Y178586D01*
X349906Y178573D01*
X349927Y178502D01*
X349944Y178430D01*
X349952Y178420D01*
X349956Y178408D01*
X350007Y178354D01*
X350054Y178296D01*
X350066Y178291D01*
X350075Y178282D01*
X350145Y178256D01*
X350213Y178225D01*
X350226Y178226D01*
X350238Y178221D01*
X350311Y178229D01*
X350386Y178232D01*
X350397Y178238D01*
X350410Y178240D01*
X350473Y178279D01*
X350538Y178315D01*
X350545Y178325D01*
X350556Y178332D01*
X350636Y178453D01*
X351540Y180635D01*
X354029Y183124D01*
X357280Y184471D01*
X358386Y184471D01*
X358459Y184488D01*
X358532Y184500D01*
X358544Y184508D01*
X358554Y184510D01*
X358584Y184534D01*
X358653Y184581D01*
X358945Y184869D01*
X358945Y184870D01*
X358946Y184871D01*
X359873Y185797D01*
X361090Y186294D01*
X361091Y186294D01*
X361092Y186295D01*
X362305Y186797D01*
X363616Y186790D01*
X363617Y186790D01*
X363618Y186790D01*
X364968Y186790D01*
X365007Y186782D01*
X373706Y186735D01*
X373745Y186743D01*
X373784Y186742D01*
X373828Y186762D01*
X373875Y186773D01*
X373906Y186798D01*
X373941Y186815D01*
X373972Y186852D01*
X374009Y186883D01*
X374026Y186919D01*
X374050Y186949D01*
X374061Y186996D01*
X374081Y187040D01*
X374080Y187080D01*
X374088Y187118D01*
X374077Y187176D01*
X374075Y187214D01*
X374074Y187217D01*
X374074Y187218D01*
X374065Y187235D01*
X374059Y187260D01*
X372555Y190892D01*
X372555Y195508D01*
X373840Y198609D01*
X373846Y198647D01*
X373862Y198683D01*
X373860Y198732D01*
X373868Y198780D01*
X373857Y198817D01*
X373855Y198856D01*
X373832Y198899D01*
X373817Y198946D01*
X373791Y198974D01*
X373772Y199008D01*
X373732Y199036D01*
X373698Y199072D01*
X373662Y199085D01*
X373631Y199108D01*
X373571Y199119D01*
X373536Y199132D01*
X373515Y199130D01*
X373489Y199135D01*
X370685Y199135D01*
X370611Y199118D01*
X370537Y199105D01*
X370526Y199098D01*
X370517Y199096D01*
X370488Y199072D01*
X370416Y199024D01*
X367066Y195674D01*
X367026Y195609D01*
X366982Y195547D01*
X366980Y195535D01*
X366975Y195526D01*
X366971Y195489D01*
X366955Y195405D01*
X366955Y194335D01*
X365613Y191095D01*
X363133Y188615D01*
X359893Y187273D01*
X356387Y187273D01*
X353147Y188615D01*
X350667Y191095D01*
X349325Y194335D01*
X349325Y197841D01*
X350667Y201081D01*
X353147Y203561D01*
X356387Y204903D01*
X357457Y204903D01*
X357531Y204920D01*
X357605Y204933D01*
X357616Y204940D01*
X357625Y204942D01*
X357654Y204966D01*
X357726Y205014D01*
X364051Y211339D01*
X366478Y212345D01*
X373621Y212345D01*
X373659Y212354D01*
X373697Y212352D01*
X373742Y212373D01*
X373790Y212384D01*
X373819Y212409D01*
X373854Y212425D01*
X373885Y212463D01*
X373923Y212494D01*
X373939Y212530D01*
X373963Y212559D01*
X373974Y212607D01*
X373994Y212653D01*
X373993Y212691D01*
X374001Y212729D01*
X373989Y212788D01*
X373988Y212826D01*
X373978Y212844D01*
X373972Y212871D01*
X372555Y216292D01*
X372555Y220908D01*
X374322Y225174D01*
X377586Y228438D01*
X381852Y230205D01*
X401548Y230205D01*
X405814Y228438D01*
X409078Y225174D01*
X410845Y220908D01*
X410845Y218411D01*
X410851Y218386D01*
X410848Y218360D01*
X410870Y218303D01*
X410884Y218242D01*
X410901Y218223D01*
X410910Y218198D01*
X410955Y218157D01*
X410994Y218109D01*
X411018Y218098D01*
X411037Y218081D01*
X411096Y218063D01*
X411153Y218038D01*
X411178Y218039D01*
X411203Y218032D01*
X411264Y218042D01*
X411326Y218045D01*
X411348Y218057D01*
X411374Y218061D01*
X411445Y218110D01*
X411478Y218127D01*
X411484Y218135D01*
X411494Y218142D01*
X412892Y219540D01*
X412918Y219583D01*
X412925Y219589D01*
X412934Y219608D01*
X412976Y219667D01*
X412978Y219679D01*
X412983Y219688D01*
X412987Y219725D01*
X412987Y219726D01*
X412996Y219747D01*
X412995Y219769D01*
X413003Y219809D01*
X413003Y331879D01*
X412986Y331953D01*
X412973Y332027D01*
X412966Y332038D01*
X412964Y332047D01*
X412940Y332076D01*
X412892Y332148D01*
X407814Y337225D01*
X407771Y337252D01*
X407734Y337287D01*
X407698Y337297D01*
X407667Y337316D01*
X407616Y337321D01*
X407567Y337336D01*
X407531Y337330D01*
X407495Y337333D01*
X407447Y337315D01*
X407397Y337306D01*
X407361Y337282D01*
X407333Y337271D01*
X407312Y337249D01*
X407277Y337225D01*
X405814Y335762D01*
X401548Y333995D01*
X381852Y333995D01*
X377586Y335762D01*
X374322Y339026D01*
X372555Y343292D01*
X372555Y347908D01*
X374322Y352174D01*
X377586Y355438D01*
X381852Y357205D01*
X401548Y357205D01*
X405814Y355438D01*
X408587Y352664D01*
X408652Y352624D01*
X408714Y352580D01*
X408726Y352578D01*
X408735Y352573D01*
X408772Y352569D01*
X408856Y352553D01*
X409746Y352553D01*
X412173Y351547D01*
X425207Y338513D01*
X426213Y336086D01*
X426213Y215602D01*
X425207Y213175D01*
X412173Y200141D01*
X409753Y199138D01*
X409711Y199108D01*
X409665Y199087D01*
X409642Y199059D01*
X409612Y199037D01*
X409588Y198992D01*
X409556Y198952D01*
X409548Y198917D01*
X409531Y198884D01*
X409529Y198833D01*
X409518Y198783D01*
X409527Y198742D01*
X409526Y198711D01*
X409538Y198683D01*
X409547Y198641D01*
X410845Y195508D01*
X410845Y190892D01*
X409259Y187064D01*
X409253Y187027D01*
X409238Y186993D01*
X409239Y186943D01*
X409231Y186893D01*
X409242Y186858D01*
X409243Y186820D01*
X409267Y186776D01*
X409282Y186728D01*
X409308Y186700D01*
X409325Y186667D01*
X409366Y186638D01*
X409401Y186602D01*
X409436Y186589D01*
X409467Y186567D01*
X409528Y186555D01*
X409563Y186542D01*
X409583Y186544D01*
X409609Y186539D01*
X412733Y186522D01*
X412809Y186539D01*
X412884Y186552D01*
X412894Y186558D01*
X412902Y186560D01*
X412931Y186583D01*
X413004Y186633D01*
X427043Y200671D01*
X429470Y201677D01*
X530887Y201677D01*
X530961Y201694D01*
X531035Y201707D01*
X531046Y201714D01*
X531055Y201716D01*
X531084Y201740D01*
X531156Y201788D01*
X575758Y246390D01*
X575759Y246392D01*
X575760Y246393D01*
X575840Y246514D01*
X577522Y250574D01*
X580786Y253838D01*
X585052Y255605D01*
X604748Y255605D01*
X609014Y253838D01*
X612278Y250574D01*
X614045Y246308D01*
X614045Y241692D01*
X612278Y237426D01*
X609014Y234162D01*
X604748Y232395D01*
X585052Y232395D01*
X582028Y233648D01*
X581965Y233658D01*
X581905Y233676D01*
X581881Y233672D01*
X581857Y233676D01*
X581796Y233657D01*
X581734Y233646D01*
X581711Y233631D01*
X581691Y233625D01*
X581664Y233599D01*
X581614Y233565D01*
X573902Y225854D01*
X573889Y225832D01*
X573869Y225816D01*
X573844Y225759D01*
X573811Y225707D01*
X573808Y225681D01*
X573798Y225657D01*
X573800Y225596D01*
X573794Y225534D01*
X573804Y225510D01*
X573805Y225484D01*
X573834Y225430D01*
X573856Y225372D01*
X573875Y225355D01*
X573887Y225332D01*
X573938Y225297D01*
X573983Y225255D01*
X574008Y225247D01*
X574029Y225232D01*
X574114Y225216D01*
X574149Y225205D01*
X574159Y225207D01*
X574171Y225205D01*
X577396Y225205D01*
X577470Y225222D01*
X577544Y225235D01*
X577555Y225242D01*
X577564Y225244D01*
X577593Y225268D01*
X577665Y225316D01*
X580786Y228438D01*
X585052Y230205D01*
X604748Y230205D01*
X609014Y228438D01*
X612278Y225174D01*
X614045Y220908D01*
X614045Y216292D01*
X612278Y212026D01*
X609014Y208762D01*
X604748Y206995D01*
X585052Y206995D01*
X580786Y208762D01*
X577665Y211884D01*
X577600Y211924D01*
X577538Y211968D01*
X577526Y211970D01*
X577517Y211975D01*
X577480Y211979D01*
X577396Y211995D01*
X575205Y211995D01*
X575131Y211978D01*
X575057Y211965D01*
X575046Y211958D01*
X575037Y211956D01*
X575008Y211932D01*
X574936Y211884D01*
X564362Y201310D01*
X564349Y201288D01*
X564329Y201272D01*
X564304Y201215D01*
X564271Y201163D01*
X564268Y201137D01*
X564258Y201113D01*
X564260Y201052D01*
X564254Y200990D01*
X564264Y200966D01*
X564265Y200940D01*
X564294Y200886D01*
X564316Y200828D01*
X564335Y200811D01*
X564347Y200788D01*
X564398Y200753D01*
X564443Y200711D01*
X564468Y200703D01*
X564489Y200688D01*
X564574Y200672D01*
X564609Y200661D01*
X564619Y200663D01*
X564631Y200661D01*
X578252Y200661D01*
X578326Y200678D01*
X578400Y200691D01*
X578411Y200698D01*
X578420Y200700D01*
X578449Y200724D01*
X578521Y200772D01*
X580786Y203038D01*
X585052Y204805D01*
X604748Y204805D01*
X609014Y203038D01*
X612278Y199774D01*
X614045Y195508D01*
X614045Y191995D01*
X614051Y191970D01*
X614048Y191944D01*
X614070Y191887D01*
X614084Y191826D01*
X614101Y191807D01*
X614110Y191782D01*
X614155Y191741D01*
X614194Y191693D01*
X614218Y191682D01*
X614237Y191665D01*
X614296Y191647D01*
X614353Y191622D01*
X614378Y191623D01*
X614403Y191616D01*
X614464Y191626D01*
X614526Y191629D01*
X614548Y191641D01*
X614574Y191645D01*
X614645Y191694D01*
X614678Y191711D01*
X614684Y191719D01*
X614694Y191726D01*
X618124Y195156D01*
X618164Y195221D01*
X618208Y195283D01*
X618210Y195295D01*
X618215Y195304D01*
X618219Y195341D01*
X618235Y195425D01*
X618235Y231438D01*
X619241Y233865D01*
X637355Y251979D01*
X639782Y252985D01*
X655596Y252985D01*
X655670Y253002D01*
X655744Y253015D01*
X655755Y253022D01*
X655764Y253024D01*
X655793Y253048D01*
X655865Y253096D01*
X658986Y256218D01*
X663252Y257985D01*
X682948Y257985D01*
X686377Y256564D01*
X686415Y256558D01*
X686451Y256542D01*
X686500Y256544D01*
X686548Y256536D01*
X686585Y256547D01*
X686624Y256549D01*
X686667Y256572D01*
X686714Y256587D01*
X686742Y256613D01*
X686776Y256632D01*
X686804Y256672D01*
X686840Y256706D01*
X686853Y256742D01*
X686876Y256773D01*
X686887Y256833D01*
X686900Y256868D01*
X686898Y256889D01*
X686903Y256916D01*
X686903Y261244D01*
X686894Y261282D01*
X686896Y261320D01*
X686875Y261365D01*
X686864Y261413D01*
X686839Y261443D01*
X686823Y261478D01*
X686785Y261509D01*
X686754Y261547D01*
X686718Y261563D01*
X686689Y261587D01*
X686641Y261597D01*
X686595Y261618D01*
X686557Y261616D01*
X686519Y261625D01*
X686460Y261613D01*
X686422Y261611D01*
X686404Y261601D01*
X686377Y261596D01*
X682948Y260175D01*
X663252Y260175D01*
X658986Y261942D01*
X655722Y265206D01*
X653955Y269472D01*
X653955Y274088D01*
X655722Y278354D01*
X658986Y281618D01*
X663252Y283385D01*
X682948Y283385D01*
X687214Y281618D01*
X690478Y278354D01*
X691304Y276359D01*
X691305Y276357D01*
X691306Y276355D01*
X691387Y276235D01*
X692442Y275180D01*
X693538Y274084D01*
X693560Y274070D01*
X693576Y274050D01*
X693633Y274025D01*
X693685Y273993D01*
X693711Y273990D01*
X693735Y273980D01*
X693796Y273982D01*
X693858Y273976D01*
X693882Y273985D01*
X693908Y273986D01*
X693962Y274016D01*
X694020Y274038D01*
X694037Y274057D01*
X694060Y274069D01*
X694095Y274119D01*
X694137Y274165D01*
X694145Y274189D01*
X694160Y274211D01*
X694176Y274295D01*
X694187Y274331D01*
X694185Y274341D01*
X694187Y274353D01*
X694187Y288228D01*
X694170Y288302D01*
X694157Y288377D01*
X694150Y288387D01*
X694148Y288397D01*
X694124Y288426D01*
X694076Y288497D01*
X688553Y294020D01*
X688489Y294060D01*
X688427Y294104D01*
X688414Y294106D01*
X688406Y294111D01*
X688369Y294115D01*
X688284Y294131D01*
X670161Y294131D01*
X667547Y295214D01*
X655386Y307375D01*
X654303Y309989D01*
X654303Y337203D01*
X655386Y339817D01*
X669091Y353522D01*
X670814Y354236D01*
X670815Y354237D01*
X670817Y354237D01*
X670937Y354318D01*
X674017Y357398D01*
X678312Y359177D01*
X698200Y359177D01*
X702495Y357398D01*
X703190Y356703D01*
X703212Y356689D01*
X703228Y356669D01*
X703285Y356644D01*
X703337Y356611D01*
X703363Y356609D01*
X703387Y356598D01*
X703448Y356600D01*
X703510Y356595D01*
X703534Y356604D01*
X703560Y356605D01*
X703614Y356634D01*
X703672Y356656D01*
X703689Y356675D01*
X703712Y356687D01*
X703747Y356738D01*
X703789Y356783D01*
X703797Y356808D01*
X703812Y356829D01*
X703828Y356914D01*
X703839Y356949D01*
X703837Y356959D01*
X703839Y356971D01*
X703839Y365568D01*
X703833Y365593D01*
X703836Y365619D01*
X703814Y365676D01*
X703800Y365737D01*
X703783Y365756D01*
X703774Y365781D01*
X703729Y365823D01*
X703690Y365870D01*
X703666Y365881D01*
X703647Y365898D01*
X703588Y365916D01*
X703531Y365941D01*
X703506Y365940D01*
X703481Y365947D01*
X703420Y365937D01*
X703358Y365935D01*
X703336Y365922D01*
X703310Y365918D01*
X703239Y365870D01*
X703206Y365852D01*
X703200Y365844D01*
X703190Y365837D01*
X702495Y365142D01*
X701201Y364202D01*
X699776Y363476D01*
X698255Y362981D01*
X696676Y362731D01*
X689017Y362731D01*
X689017Y372511D01*
X689006Y372561D01*
X689004Y372612D01*
X688986Y372644D01*
X688978Y372680D01*
X688945Y372719D01*
X688921Y372764D01*
X688891Y372785D01*
X688868Y372813D01*
X688821Y372834D01*
X688779Y372863D01*
X688737Y372872D01*
X688709Y372884D01*
X688679Y372883D01*
X688637Y372891D01*
X688255Y372891D01*
X688255Y372893D01*
X688637Y372893D01*
X688687Y372905D01*
X688738Y372906D01*
X688770Y372924D01*
X688806Y372932D01*
X688845Y372965D01*
X688890Y372989D01*
X688911Y373019D01*
X688939Y373043D01*
X688960Y373089D01*
X688990Y373131D01*
X688998Y373173D01*
X689010Y373201D01*
X689009Y373231D01*
X689017Y373273D01*
X689017Y383053D01*
X696676Y383053D01*
X698255Y382803D01*
X699776Y382308D01*
X701201Y381582D01*
X702495Y380642D01*
X703190Y379947D01*
X703212Y379934D01*
X703228Y379914D01*
X703285Y379888D01*
X703337Y379856D01*
X703363Y379853D01*
X703387Y379843D01*
X703448Y379845D01*
X703510Y379839D01*
X703534Y379848D01*
X703560Y379849D01*
X703614Y379879D01*
X703672Y379901D01*
X703689Y379920D01*
X703712Y379932D01*
X703747Y379983D01*
X703789Y380028D01*
X703797Y380053D01*
X703812Y380074D01*
X703828Y380158D01*
X703839Y380194D01*
X703837Y380204D01*
X703839Y380216D01*
X703839Y426212D01*
X703828Y426262D01*
X703826Y426313D01*
X703808Y426345D01*
X703800Y426381D01*
X703767Y426420D01*
X703743Y426465D01*
X703713Y426486D01*
X703690Y426514D01*
X703643Y426535D01*
X703601Y426565D01*
X703559Y426573D01*
X703531Y426585D01*
X703501Y426584D01*
X703459Y426592D01*
X682270Y426592D01*
X682232Y426583D01*
X682163Y426577D01*
X679362Y425754D01*
X666638Y425754D01*
X663837Y426577D01*
X663798Y426579D01*
X663730Y426592D01*
X634650Y426592D01*
X630808Y430434D01*
X630808Y455794D01*
X630806Y455803D01*
X630808Y455811D01*
X630774Y455952D01*
X630110Y457406D01*
X628299Y470000D01*
X630110Y482594D01*
X630774Y484048D01*
X630776Y484056D01*
X630781Y484063D01*
X630808Y484206D01*
X630808Y500459D01*
X630797Y500509D01*
X630795Y500560D01*
X630777Y500592D01*
X630769Y500628D01*
X630736Y500667D01*
X630712Y500712D01*
X630682Y500733D01*
X630659Y500761D01*
X630612Y500782D01*
X630570Y500812D01*
X630528Y500820D01*
X630500Y500832D01*
X630470Y500831D01*
X630428Y500839D01*
X254138Y500839D01*
X254113Y500833D01*
X254087Y500836D01*
X254029Y500814D01*
X253969Y500800D01*
X253949Y500783D01*
X253925Y500774D01*
X253883Y500729D01*
X253835Y500690D01*
X253825Y500666D01*
X253807Y500647D01*
X253790Y500588D01*
X253764Y500531D01*
X253765Y500506D01*
X253758Y500481D01*
X253769Y500420D01*
X253771Y500358D01*
X253783Y500336D01*
X253788Y500310D01*
X253836Y500239D01*
X253854Y500206D01*
X253862Y500200D01*
X253869Y500190D01*
X273976Y480083D01*
X276030Y478029D01*
X277113Y475415D01*
X277113Y426444D01*
X277130Y426370D01*
X277143Y426295D01*
X277150Y426285D01*
X277152Y426275D01*
X277176Y426246D01*
X277224Y426175D01*
X277500Y425899D01*
X278847Y422648D01*
X278847Y419128D01*
X277500Y415877D01*
X275011Y413388D01*
X271760Y412041D01*
X268240Y412041D01*
X264989Y413388D01*
X262500Y415877D01*
X261153Y419128D01*
X261153Y422648D01*
X262500Y425899D01*
X262776Y426175D01*
X262816Y426240D01*
X262860Y426302D01*
X262862Y426314D01*
X262867Y426322D01*
X262871Y426359D01*
X262887Y426444D01*
X262887Y470896D01*
X262870Y470970D01*
X262857Y471045D01*
X262850Y471055D01*
X262848Y471065D01*
X262824Y471094D01*
X262776Y471165D01*
X243373Y490568D01*
X243309Y490608D01*
X243247Y490652D01*
X243234Y490654D01*
X243226Y490659D01*
X243189Y490663D01*
X243104Y490679D01*
X231648Y490679D01*
X231598Y490668D01*
X231547Y490666D01*
X231515Y490648D01*
X231479Y490640D01*
X231440Y490607D01*
X231395Y490583D01*
X231374Y490553D01*
X231346Y490530D01*
X231325Y490483D01*
X231295Y490441D01*
X231287Y490399D01*
X231275Y490371D01*
X231276Y490341D01*
X231268Y490299D01*
X231268Y339957D01*
X231274Y339932D01*
X231271Y339907D01*
X231281Y339880D01*
X231281Y339878D01*
X231284Y339872D01*
X231293Y339849D01*
X231307Y339789D01*
X231324Y339769D01*
X231333Y339745D01*
X231378Y339703D01*
X231417Y339655D01*
X231441Y339644D01*
X231460Y339627D01*
X231519Y339609D01*
X231576Y339584D01*
X231601Y339585D01*
X231626Y339578D01*
X231687Y339588D01*
X231749Y339591D01*
X231771Y339603D01*
X231797Y339607D01*
X231868Y339656D01*
X231901Y339673D01*
X231907Y339682D01*
X231917Y339688D01*
X232266Y340038D01*
X236532Y341805D01*
X256228Y341805D01*
X260494Y340038D01*
X263758Y336774D01*
X265525Y332508D01*
X265525Y327892D01*
X263758Y323626D01*
X260494Y320362D01*
X256228Y318595D01*
X236532Y318595D01*
X232266Y320362D01*
X231917Y320712D01*
X231895Y320725D01*
X231879Y320745D01*
X231822Y320770D01*
X231770Y320803D01*
X231744Y320805D01*
X231720Y320816D01*
X231659Y320814D01*
X231597Y320820D01*
X231573Y320810D01*
X231547Y320809D01*
X231493Y320780D01*
X231435Y320758D01*
X231418Y320739D01*
X231395Y320727D01*
X231360Y320676D01*
X231318Y320631D01*
X231310Y320606D01*
X231295Y320585D01*
X231279Y320500D01*
X231268Y320465D01*
X231270Y320455D01*
X231268Y320443D01*
X231268Y314557D01*
X231274Y314532D01*
X231271Y314507D01*
X231293Y314449D01*
X231307Y314389D01*
X231324Y314369D01*
X231333Y314345D01*
X231378Y314303D01*
X231417Y314255D01*
X231441Y314244D01*
X231460Y314227D01*
X231519Y314209D01*
X231576Y314184D01*
X231601Y314185D01*
X231626Y314178D01*
X231687Y314188D01*
X231749Y314191D01*
X231771Y314203D01*
X231797Y314207D01*
X231868Y314256D01*
X231901Y314273D01*
X231907Y314282D01*
X231917Y314288D01*
X232266Y314638D01*
X236532Y316405D01*
X256228Y316405D01*
X260494Y314638D01*
X263758Y311374D01*
X265525Y307108D01*
X265525Y302492D01*
X263758Y298226D01*
X260494Y294962D01*
X256228Y293195D01*
X236532Y293195D01*
X232266Y294962D01*
X231917Y295312D01*
X231895Y295325D01*
X231879Y295345D01*
X231822Y295370D01*
X231770Y295403D01*
X231744Y295405D01*
X231720Y295416D01*
X231659Y295414D01*
X231597Y295420D01*
X231573Y295410D01*
X231547Y295409D01*
X231493Y295380D01*
X231435Y295358D01*
X231418Y295339D01*
X231395Y295327D01*
X231360Y295276D01*
X231318Y295231D01*
X231310Y295206D01*
X231295Y295185D01*
X231279Y295100D01*
X231268Y295065D01*
X231270Y295055D01*
X231268Y295043D01*
X231268Y289157D01*
X231274Y289132D01*
X231271Y289107D01*
X231293Y289049D01*
X231307Y288989D01*
X231324Y288969D01*
X231333Y288945D01*
X231378Y288903D01*
X231417Y288855D01*
X231441Y288844D01*
X231460Y288827D01*
X231519Y288809D01*
X231576Y288784D01*
X231601Y288785D01*
X231626Y288778D01*
X231687Y288788D01*
X231749Y288791D01*
X231771Y288803D01*
X231797Y288807D01*
X231868Y288856D01*
X231901Y288873D01*
X231907Y288882D01*
X231917Y288888D01*
X232266Y289238D01*
X236532Y291005D01*
X256228Y291005D01*
X260494Y289238D01*
X263758Y285974D01*
X265525Y281708D01*
X265525Y277092D01*
X263758Y272826D01*
X260494Y269562D01*
X256228Y267795D01*
X236532Y267795D01*
X232266Y269562D01*
X231917Y269912D01*
X231895Y269925D01*
X231879Y269945D01*
X231822Y269970D01*
X231814Y269976D01*
X231801Y269985D01*
X231798Y269985D01*
X231770Y270003D01*
X231744Y270005D01*
X231720Y270016D01*
X231659Y270014D01*
X231597Y270020D01*
X231573Y270010D01*
X231547Y270009D01*
X231493Y269980D01*
X231435Y269958D01*
X231418Y269939D01*
X231395Y269927D01*
X231360Y269876D01*
X231351Y269867D01*
X231346Y269863D01*
X231344Y269860D01*
X231318Y269831D01*
X231310Y269806D01*
X231295Y269785D01*
X231284Y269724D01*
X231275Y269704D01*
X231275Y269688D01*
X231268Y269665D01*
X231270Y269655D01*
X231268Y269643D01*
X231268Y263757D01*
X231274Y263732D01*
X231271Y263707D01*
X231293Y263649D01*
X231307Y263589D01*
X231324Y263569D01*
X231333Y263545D01*
X231378Y263503D01*
X231417Y263455D01*
X231441Y263444D01*
X231460Y263427D01*
X231519Y263409D01*
X231576Y263384D01*
X231601Y263385D01*
X231626Y263378D01*
X231687Y263388D01*
X231749Y263391D01*
X231771Y263403D01*
X231797Y263407D01*
X231868Y263456D01*
X231901Y263473D01*
X231907Y263482D01*
X231917Y263488D01*
X232266Y263838D01*
X236532Y265605D01*
X256228Y265605D01*
X260494Y263838D01*
X263758Y260574D01*
X265525Y256308D01*
X265525Y251692D01*
X263758Y247426D01*
X260494Y244162D01*
X256228Y242395D01*
X236532Y242395D01*
X232266Y244162D01*
X231917Y244512D01*
X231895Y244525D01*
X231879Y244545D01*
X231822Y244570D01*
X231770Y244603D01*
X231744Y244605D01*
X231720Y244616D01*
X231659Y244614D01*
X231597Y244620D01*
X231573Y244610D01*
X231547Y244609D01*
X231493Y244580D01*
X231435Y244558D01*
X231418Y244539D01*
X231395Y244527D01*
X231360Y244476D01*
X231318Y244431D01*
X231310Y244406D01*
X231295Y244385D01*
X231279Y244300D01*
X231268Y244265D01*
X231270Y244255D01*
X231268Y244243D01*
X231268Y236202D01*
X231274Y236177D01*
X231271Y236151D01*
X231293Y236094D01*
X231307Y236033D01*
X231324Y236013D01*
X231333Y235989D01*
X231378Y235947D01*
X231417Y235900D01*
X231441Y235889D01*
X231460Y235872D01*
X231519Y235854D01*
X231576Y235829D01*
X231601Y235830D01*
X231626Y235822D01*
X231687Y235833D01*
X231749Y235835D01*
X231771Y235848D01*
X231797Y235852D01*
X231868Y235900D01*
X231901Y235918D01*
X231907Y235926D01*
X231917Y235933D01*
X232273Y236289D01*
X233556Y237222D01*
X234970Y237942D01*
X236479Y238432D01*
X238047Y238681D01*
X245619Y238681D01*
X245619Y228981D01*
X245630Y228931D01*
X245632Y228880D01*
X245650Y228848D01*
X245658Y228812D01*
X245691Y228773D01*
X245715Y228728D01*
X245745Y228707D01*
X245768Y228679D01*
X245815Y228658D01*
X245857Y228629D01*
X245899Y228620D01*
X245927Y228608D01*
X245957Y228609D01*
X245999Y228601D01*
X246381Y228601D01*
X246381Y228599D01*
X245999Y228599D01*
X245949Y228587D01*
X245898Y228586D01*
X245866Y228568D01*
X245830Y228560D01*
X245791Y228527D01*
X245746Y228503D01*
X245725Y228473D01*
X245697Y228449D01*
X245676Y228403D01*
X245646Y228361D01*
X245638Y228319D01*
X245626Y228291D01*
X245627Y228261D01*
X245627Y228259D01*
X245626Y228257D01*
X245626Y228255D01*
X245619Y228219D01*
X245619Y218519D01*
X238047Y218519D01*
X236479Y218768D01*
X234970Y219258D01*
X233556Y219978D01*
X232273Y220911D01*
X231917Y221267D01*
X231895Y221280D01*
X231879Y221300D01*
X231822Y221326D01*
X231770Y221358D01*
X231744Y221361D01*
X231720Y221371D01*
X231659Y221369D01*
X231597Y221375D01*
X231573Y221366D01*
X231547Y221365D01*
X231493Y221335D01*
X231435Y221313D01*
X231418Y221294D01*
X231395Y221282D01*
X231360Y221231D01*
X231318Y221186D01*
X231310Y221161D01*
X231295Y221140D01*
X231279Y221056D01*
X231268Y221020D01*
X231270Y221010D01*
X231268Y220998D01*
X231268Y198786D01*
X230983Y198500D01*
X131969Y198500D01*
X131895Y198483D01*
X131821Y198470D01*
X131810Y198463D01*
X131801Y198461D01*
X131772Y198437D01*
X131700Y198389D01*
X128974Y195662D01*
X124708Y193895D01*
X105012Y193895D01*
X101222Y195465D01*
X101196Y195469D01*
X101173Y195481D01*
X101112Y195483D01*
X101051Y195493D01*
X101026Y195486D01*
X101000Y195486D01*
X100944Y195461D01*
X100885Y195443D01*
X100866Y195425D01*
X100843Y195414D01*
X100804Y195366D01*
X100759Y195324D01*
X100750Y195299D01*
X100734Y195279D01*
X100720Y195219D01*
X100699Y195161D01*
X100702Y195135D01*
X100696Y195110D01*
X100713Y195026D01*
X100714Y195002D01*
X100716Y194999D01*
X100717Y194989D01*
X100722Y194980D01*
X100725Y194968D01*
X100795Y194800D01*
X100795Y191280D01*
X100485Y190532D01*
X100481Y190507D01*
X100469Y190484D01*
X100467Y190422D01*
X100457Y190361D01*
X100464Y190337D01*
X100464Y190311D01*
X100489Y190255D01*
X100507Y190196D01*
X100525Y190177D01*
X100536Y190153D01*
X100584Y190114D01*
X100626Y190070D01*
X100651Y190061D01*
X100671Y190044D01*
X100731Y190031D01*
X100789Y190009D01*
X100815Y190012D01*
X100840Y190007D01*
X100924Y190024D01*
X100961Y190028D01*
X100970Y190033D01*
X100982Y190035D01*
X105012Y191705D01*
X124708Y191705D01*
X127511Y190544D01*
X127513Y190543D01*
X127515Y190542D01*
X127657Y190515D01*
X176048Y190515D01*
X179875Y188929D01*
X201361Y167443D01*
X202947Y163616D01*
X202947Y117475D01*
X202958Y117425D01*
X202960Y117374D01*
X202978Y117342D01*
X202986Y117306D01*
X203019Y117267D01*
X203043Y117222D01*
X203073Y117201D01*
X203096Y117173D01*
X203143Y117152D01*
X203185Y117122D01*
X203227Y117114D01*
X203255Y117102D01*
X203285Y117103D01*
X203327Y117095D01*
X211876Y117095D01*
X215703Y115509D01*
X218633Y112579D01*
X220219Y108752D01*
X220219Y104608D01*
X218633Y100781D01*
X215703Y97851D01*
X211876Y96265D01*
X190460Y96265D01*
X186633Y97851D01*
X183703Y100781D01*
X182117Y104608D01*
X182117Y118351D01*
X182114Y118364D01*
X182116Y118377D01*
X182095Y118448D01*
X182078Y118520D01*
X182070Y118530D01*
X182066Y118543D01*
X182015Y118596D01*
X181968Y118654D01*
X181956Y118659D01*
X181947Y118669D01*
X181877Y118694D01*
X181809Y118725D01*
X181796Y118724D01*
X181784Y118729D01*
X181711Y118721D01*
X181636Y118718D01*
X181625Y118712D01*
X181612Y118710D01*
X181549Y118671D01*
X181484Y118635D01*
X181477Y118625D01*
X181466Y118618D01*
X181386Y118497D01*
X180728Y116909D01*
X178239Y114420D01*
X174988Y113073D01*
X171468Y113073D01*
X168217Y114420D01*
X165728Y116909D01*
X164381Y120160D01*
X164381Y121269D01*
X164364Y121343D01*
X164351Y121417D01*
X164344Y121428D01*
X164342Y121437D01*
X164318Y121466D01*
X164270Y121538D01*
X151760Y134047D01*
X149849Y135959D01*
X148843Y138386D01*
X148843Y152047D01*
X148826Y152121D01*
X148813Y152195D01*
X148806Y152206D01*
X148804Y152215D01*
X148780Y152244D01*
X148732Y152316D01*
X141140Y159908D01*
X141075Y159948D01*
X141013Y159992D01*
X141001Y159994D01*
X140992Y159999D01*
X140955Y160003D01*
X140871Y160019D01*
X133327Y160019D01*
X133289Y160010D01*
X133251Y160012D01*
X133206Y159991D01*
X133158Y159980D01*
X133128Y159955D01*
X133093Y159939D01*
X133062Y159901D01*
X133024Y159870D01*
X133009Y159834D01*
X132984Y159805D01*
X132974Y159757D01*
X132953Y159711D01*
X132955Y159673D01*
X132946Y159635D01*
X132959Y159576D01*
X132960Y159538D01*
X132970Y159520D01*
X132975Y159493D01*
X134005Y157008D01*
X134005Y152392D01*
X132238Y148126D01*
X128974Y144862D01*
X124708Y143095D01*
X105012Y143095D01*
X100746Y144862D01*
X97482Y148126D01*
X95715Y152392D01*
X95715Y157008D01*
X96745Y159493D01*
X96751Y159531D01*
X96767Y159567D01*
X96765Y159616D01*
X96773Y159664D01*
X96762Y159701D01*
X96760Y159740D01*
X96736Y159783D01*
X96722Y159830D01*
X96696Y159858D01*
X96677Y159892D01*
X96637Y159920D01*
X96603Y159956D01*
X96567Y159969D01*
X96536Y159992D01*
X96476Y160003D01*
X96441Y160016D01*
X96420Y160014D01*
X96393Y160019D01*
X49801Y160019D01*
X49789Y160016D01*
X49776Y160018D01*
X49705Y159997D01*
X49633Y159980D01*
X49623Y159972D01*
X49610Y159968D01*
X49556Y159917D01*
X49499Y159870D01*
X49494Y159858D01*
X49484Y159849D01*
X49459Y159779D01*
X49428Y159711D01*
X49429Y159698D01*
X49424Y159686D01*
X49432Y159612D01*
X49435Y159538D01*
X49441Y159527D01*
X49442Y159514D01*
X49482Y159451D01*
X49517Y159386D01*
X49528Y159379D01*
X49535Y159368D01*
X49656Y159288D01*
X51433Y158552D01*
X54934Y155051D01*
X56829Y150476D01*
X56829Y145524D01*
X54934Y140949D01*
X51433Y137448D01*
X46858Y135553D01*
X25142Y135553D01*
X20567Y137448D01*
X17066Y140949D01*
X15171Y145524D01*
X15171Y150476D01*
X17066Y155051D01*
X20567Y158552D01*
X22344Y159288D01*
X22355Y159295D01*
X22367Y159298D01*
X22425Y159345D01*
X22485Y159389D01*
X22491Y159400D01*
X22501Y159408D01*
X22531Y159476D01*
X22566Y159542D01*
X22567Y159555D01*
X22572Y159567D01*
X22569Y159641D01*
X22571Y159715D01*
X22566Y159727D01*
X22565Y159740D01*
X22530Y159805D01*
X22499Y159872D01*
X22489Y159881D01*
X22483Y159892D01*
X22422Y159934D01*
X22364Y159981D01*
X22351Y159984D01*
X22341Y159992D01*
X22199Y160019D01*
X19006Y160019D01*
X16579Y161025D01*
X14667Y162936D01*
X10810Y166794D01*
X10788Y166807D01*
X10772Y166827D01*
X10715Y166852D01*
X10663Y166885D01*
X10637Y166888D01*
X10613Y166898D01*
X10552Y166896D01*
X10490Y166902D01*
X10466Y166892D01*
X10440Y166891D01*
X10386Y166862D01*
X10328Y166840D01*
X10311Y166821D01*
X10288Y166809D01*
X10253Y166758D01*
X10211Y166713D01*
X10203Y166688D01*
X10188Y166667D01*
X10172Y166582D01*
X10161Y166547D01*
X10163Y166537D01*
X10161Y166525D01*
X10161Y89408D01*
X10172Y89358D01*
X10174Y89307D01*
X10192Y89275D01*
X10200Y89239D01*
X10233Y89200D01*
X10257Y89155D01*
X10287Y89134D01*
X10310Y89106D01*
X10357Y89085D01*
X10399Y89055D01*
X10441Y89047D01*
X10469Y89035D01*
X10499Y89036D01*
X10541Y89028D01*
X51151Y89028D01*
X59427Y80752D01*
X59446Y80740D01*
X59460Y80722D01*
X59533Y80684D01*
X59546Y80675D01*
X59548Y80675D01*
X70273Y73783D01*
X78605Y64167D01*
X80756Y59456D01*
X80773Y59434D01*
X80833Y59345D01*
X130906Y9272D01*
X130971Y9232D01*
X131033Y9188D01*
X131045Y9186D01*
X131053Y9181D01*
X131090Y9177D01*
X131175Y9161D01*
X624332Y9161D01*
X624382Y9172D01*
G37*
G36*
X222554Y212483D02*
X222554Y212483D01*
X222605Y212485D01*
X222637Y212503D01*
X222673Y212511D01*
X222712Y212544D01*
X222757Y212568D01*
X222778Y212598D01*
X222806Y212621D01*
X222827Y212668D01*
X222857Y212710D01*
X222865Y212752D01*
X222877Y212780D01*
X222876Y212810D01*
X222884Y212852D01*
X222884Y425704D01*
X222867Y425778D01*
X222854Y425853D01*
X222847Y425863D01*
X222845Y425873D01*
X222821Y425902D01*
X222773Y425973D01*
X210581Y438165D01*
X210516Y438205D01*
X210454Y438249D01*
X210442Y438251D01*
X210434Y438256D01*
X210397Y438260D01*
X210312Y438276D01*
X178466Y438276D01*
X157860Y458882D01*
X157860Y487680D01*
X157849Y487730D01*
X157847Y487781D01*
X157829Y487813D01*
X157821Y487849D01*
X157788Y487888D01*
X157764Y487933D01*
X157734Y487954D01*
X157711Y487982D01*
X157664Y488003D01*
X157622Y488033D01*
X157580Y488041D01*
X157552Y488053D01*
X157522Y488052D01*
X157480Y488060D01*
X137160Y488060D01*
X137110Y488049D01*
X137059Y488047D01*
X137027Y488029D01*
X136991Y488021D01*
X136952Y487988D01*
X136907Y487964D01*
X136886Y487934D01*
X136858Y487911D01*
X136837Y487864D01*
X136807Y487822D01*
X136799Y487780D01*
X136787Y487752D01*
X136788Y487722D01*
X136780Y487680D01*
X136780Y212852D01*
X136791Y212802D01*
X136793Y212751D01*
X136811Y212719D01*
X136819Y212683D01*
X136852Y212644D01*
X136876Y212599D01*
X136906Y212578D01*
X136929Y212550D01*
X136976Y212529D01*
X137018Y212499D01*
X137060Y212491D01*
X137088Y212479D01*
X137118Y212480D01*
X137160Y212472D01*
X222504Y212472D01*
X222554Y212483D01*
G37*
%LPC*%
G36*
X330668Y358393D02*
X330668Y358393D01*
X326841Y359979D01*
X323911Y362909D01*
X322325Y366736D01*
X322325Y371957D01*
X322312Y372014D01*
X322312Y372020D01*
X322309Y372024D01*
X322308Y372031D01*
X322295Y372105D01*
X322288Y372116D01*
X322286Y372125D01*
X322262Y372154D01*
X322214Y372225D01*
X298003Y396437D01*
X296417Y400264D01*
X296417Y455716D01*
X298003Y459543D01*
X318205Y479745D01*
X322032Y481331D01*
X586272Y481331D01*
X590099Y479745D01*
X604205Y465639D01*
X605791Y461812D01*
X605791Y457668D01*
X604205Y453841D01*
X601275Y450911D01*
X597448Y449325D01*
X593304Y449325D01*
X589477Y450911D01*
X579997Y460390D01*
X579933Y460430D01*
X579871Y460474D01*
X579859Y460476D01*
X579850Y460481D01*
X579813Y460485D01*
X579729Y460501D01*
X328575Y460501D01*
X328501Y460484D01*
X328427Y460471D01*
X328416Y460464D01*
X328407Y460462D01*
X328378Y460438D01*
X328307Y460390D01*
X317358Y449441D01*
X317318Y449377D01*
X317274Y449315D01*
X317272Y449303D01*
X317267Y449294D01*
X317263Y449257D01*
X317247Y449173D01*
X317247Y406807D01*
X317264Y406733D01*
X317277Y406659D01*
X317284Y406648D01*
X317286Y406639D01*
X317310Y406610D01*
X317358Y406539D01*
X341569Y382327D01*
X343155Y378500D01*
X343155Y366736D01*
X341569Y362909D01*
X338639Y359979D01*
X334812Y358393D01*
X330668Y358393D01*
G37*
%LPD*%
%LPC*%
G36*
X180972Y19255D02*
X180972Y19255D01*
X176706Y21022D01*
X174447Y23281D01*
X174404Y23308D01*
X174367Y23343D01*
X174331Y23353D01*
X174300Y23373D01*
X174249Y23377D01*
X174200Y23392D01*
X174164Y23386D01*
X174128Y23389D01*
X174080Y23371D01*
X174030Y23362D01*
X173994Y23338D01*
X173966Y23327D01*
X173945Y23305D01*
X173910Y23281D01*
X172264Y21635D01*
X143496Y21635D01*
X141115Y24016D01*
X141115Y30353D01*
X141104Y30403D01*
X141102Y30454D01*
X141084Y30486D01*
X141076Y30522D01*
X141043Y30561D01*
X141019Y30606D01*
X140989Y30627D01*
X140966Y30655D01*
X140919Y30676D01*
X140877Y30706D01*
X140835Y30714D01*
X140807Y30726D01*
X140777Y30725D01*
X140735Y30733D01*
X118262Y30733D01*
X114434Y32319D01*
X111451Y35302D01*
X48764Y97989D01*
X48710Y98022D01*
X48661Y98062D01*
X48637Y98067D01*
X48617Y98080D01*
X48553Y98086D01*
X48491Y98100D01*
X48465Y98095D01*
X48444Y98097D01*
X48409Y98083D01*
X48349Y98071D01*
X46858Y97453D01*
X25142Y97453D01*
X20567Y99348D01*
X17066Y102849D01*
X15171Y107424D01*
X15171Y112376D01*
X17066Y116951D01*
X20567Y120452D01*
X25142Y122347D01*
X46858Y122347D01*
X51433Y120452D01*
X51458Y120426D01*
X51523Y120386D01*
X51585Y120342D01*
X51597Y120340D01*
X51605Y120335D01*
X51642Y120331D01*
X51727Y120315D01*
X53653Y120315D01*
X57481Y118729D01*
X96667Y79542D01*
X96737Y79499D01*
X96806Y79454D01*
X96811Y79453D01*
X96815Y79451D01*
X96897Y79443D01*
X96978Y79433D01*
X96983Y79435D01*
X96987Y79434D01*
X97064Y79464D01*
X97142Y79491D01*
X97145Y79494D01*
X97149Y79496D01*
X97206Y79557D01*
X97262Y79616D01*
X97264Y79620D01*
X97267Y79623D01*
X97274Y79648D01*
X97312Y79752D01*
X97487Y80861D01*
X97978Y82370D01*
X98698Y83784D01*
X99631Y85067D01*
X100753Y86189D01*
X102036Y87122D01*
X103450Y87842D01*
X104959Y88332D01*
X106527Y88581D01*
X114099Y88581D01*
X114099Y78881D01*
X114110Y78831D01*
X114112Y78780D01*
X114130Y78748D01*
X114138Y78712D01*
X114171Y78673D01*
X114195Y78628D01*
X114225Y78607D01*
X114248Y78579D01*
X114295Y78558D01*
X114337Y78529D01*
X114379Y78520D01*
X114407Y78508D01*
X114437Y78509D01*
X114479Y78501D01*
X114861Y78501D01*
X114861Y78499D01*
X114479Y78499D01*
X114429Y78487D01*
X114378Y78486D01*
X114346Y78468D01*
X114310Y78460D01*
X114271Y78427D01*
X114226Y78403D01*
X114205Y78373D01*
X114177Y78349D01*
X114156Y78303D01*
X114126Y78261D01*
X114118Y78219D01*
X114106Y78191D01*
X114107Y78161D01*
X114099Y78119D01*
X114099Y68419D01*
X108709Y68419D01*
X108683Y68413D01*
X108658Y68416D01*
X108600Y68394D01*
X108540Y68380D01*
X108520Y68363D01*
X108496Y68354D01*
X108454Y68309D01*
X108406Y68270D01*
X108396Y68246D01*
X108378Y68227D01*
X108361Y68168D01*
X108335Y68111D01*
X108336Y68086D01*
X108329Y68061D01*
X108340Y68000D01*
X108342Y67938D01*
X108354Y67916D01*
X108359Y67890D01*
X108407Y67819D01*
X108425Y67786D01*
X108433Y67780D01*
X108440Y67770D01*
X124536Y51674D01*
X124600Y51634D01*
X124662Y51590D01*
X124675Y51588D01*
X124683Y51583D01*
X124720Y51579D01*
X124805Y51563D01*
X140735Y51563D01*
X140785Y51574D01*
X140836Y51576D01*
X140868Y51594D01*
X140904Y51602D01*
X140943Y51635D01*
X140988Y51659D01*
X141009Y51689D01*
X141037Y51712D01*
X141058Y51759D01*
X141088Y51801D01*
X141096Y51843D01*
X141108Y51871D01*
X141107Y51901D01*
X141115Y51943D01*
X141115Y52784D01*
X143496Y55165D01*
X172264Y55165D01*
X173910Y53519D01*
X173953Y53492D01*
X173990Y53457D01*
X174026Y53447D01*
X174057Y53427D01*
X174107Y53423D01*
X174156Y53408D01*
X174193Y53414D01*
X174229Y53411D01*
X174277Y53429D01*
X174327Y53438D01*
X174363Y53462D01*
X174391Y53473D01*
X174412Y53495D01*
X174447Y53519D01*
X176706Y55778D01*
X180972Y57545D01*
X185588Y57545D01*
X189854Y55778D01*
X193118Y52514D01*
X194885Y48248D01*
X194885Y28552D01*
X193118Y24286D01*
X189854Y21022D01*
X185588Y19255D01*
X180972Y19255D01*
G37*
%LPD*%
%LPC*%
G36*
X296944Y64305D02*
X296944Y64305D01*
X293693Y65652D01*
X291204Y68141D01*
X289857Y71392D01*
X289857Y74912D01*
X291204Y78163D01*
X291988Y78947D01*
X292028Y79012D01*
X292072Y79074D01*
X292074Y79086D01*
X292079Y79094D01*
X292083Y79131D01*
X292099Y79216D01*
X292099Y191814D01*
X293105Y194241D01*
X352440Y253576D01*
X352480Y253641D01*
X352524Y253703D01*
X352526Y253715D01*
X352531Y253724D01*
X352535Y253761D01*
X352551Y253845D01*
X352551Y263855D01*
X352540Y263905D01*
X352538Y263956D01*
X352520Y263988D01*
X352512Y264024D01*
X352479Y264063D01*
X352455Y264108D01*
X352425Y264129D01*
X352402Y264157D01*
X352355Y264178D01*
X352313Y264208D01*
X352271Y264216D01*
X352243Y264228D01*
X352213Y264227D01*
X352171Y264235D01*
X324616Y264235D01*
X322235Y266616D01*
X322235Y295384D01*
X324616Y297765D01*
X353384Y297765D01*
X355765Y295384D01*
X355765Y286775D01*
X355771Y286750D01*
X355768Y286724D01*
X355790Y286667D01*
X355804Y286606D01*
X355821Y286587D01*
X355830Y286562D01*
X355875Y286521D01*
X355914Y286473D01*
X355938Y286462D01*
X355957Y286445D01*
X356016Y286427D01*
X356073Y286402D01*
X356098Y286403D01*
X356123Y286396D01*
X356184Y286406D01*
X356246Y286409D01*
X356268Y286421D01*
X356294Y286425D01*
X356365Y286474D01*
X356398Y286491D01*
X356404Y286499D01*
X356414Y286506D01*
X370307Y300399D01*
X372734Y301405D01*
X374196Y301405D01*
X374270Y301422D01*
X374344Y301435D01*
X374355Y301442D01*
X374364Y301444D01*
X374393Y301468D01*
X374465Y301516D01*
X377586Y304638D01*
X381852Y306405D01*
X401548Y306405D01*
X405814Y304638D01*
X409078Y301374D01*
X410845Y297108D01*
X410845Y292492D01*
X409078Y288226D01*
X405814Y284962D01*
X401548Y283195D01*
X381852Y283195D01*
X377586Y284962D01*
X375837Y286711D01*
X375794Y286738D01*
X375757Y286773D01*
X375721Y286783D01*
X375690Y286802D01*
X375639Y286807D01*
X375590Y286822D01*
X375554Y286816D01*
X375518Y286819D01*
X375470Y286801D01*
X375420Y286792D01*
X375384Y286768D01*
X375356Y286757D01*
X375335Y286735D01*
X375300Y286711D01*
X365872Y277284D01*
X365832Y277219D01*
X365788Y277157D01*
X365786Y277145D01*
X365781Y277136D01*
X365777Y277099D01*
X365761Y277015D01*
X365761Y249638D01*
X364755Y247211D01*
X305420Y187876D01*
X305380Y187811D01*
X305336Y187749D01*
X305334Y187737D01*
X305329Y187728D01*
X305325Y187691D01*
X305309Y187607D01*
X305309Y79216D01*
X305326Y79142D01*
X305339Y79067D01*
X305346Y79057D01*
X305348Y79047D01*
X305372Y79018D01*
X305420Y78947D01*
X306204Y78163D01*
X307551Y74912D01*
X307551Y71392D01*
X306204Y68141D01*
X303715Y65652D01*
X300464Y64305D01*
X296944Y64305D01*
G37*
%LPD*%
G36*
X130098Y221627D02*
X130098Y221627D01*
X130149Y221629D01*
X130181Y221647D01*
X130217Y221655D01*
X130256Y221688D01*
X130301Y221712D01*
X130322Y221742D01*
X130350Y221765D01*
X130371Y221812D01*
X130401Y221854D01*
X130409Y221896D01*
X130421Y221924D01*
X130420Y221954D01*
X130428Y221996D01*
X130428Y246888D01*
X130411Y246962D01*
X130398Y247037D01*
X130391Y247047D01*
X130389Y247057D01*
X130365Y247086D01*
X130317Y247157D01*
X129809Y247665D01*
X129744Y247705D01*
X129682Y247749D01*
X129670Y247751D01*
X129662Y247756D01*
X129625Y247760D01*
X129540Y247776D01*
X19812Y247776D01*
X19762Y247765D01*
X19711Y247763D01*
X19679Y247745D01*
X19643Y247737D01*
X19604Y247704D01*
X19559Y247680D01*
X19538Y247650D01*
X19510Y247627D01*
X19489Y247580D01*
X19459Y247538D01*
X19451Y247496D01*
X19439Y247468D01*
X19440Y247438D01*
X19432Y247396D01*
X19432Y228600D01*
X19449Y228526D01*
X19462Y228451D01*
X19469Y228441D01*
X19471Y228431D01*
X19495Y228402D01*
X19543Y228331D01*
X26147Y221727D01*
X26212Y221687D01*
X26274Y221643D01*
X26286Y221641D01*
X26294Y221636D01*
X26331Y221632D01*
X26416Y221616D01*
X130048Y221616D01*
X130098Y221627D01*
G37*
%LPC*%
G36*
X585052Y79995D02*
X585052Y79995D01*
X580786Y81762D01*
X577522Y85026D01*
X575755Y89292D01*
X575755Y93908D01*
X577522Y98174D01*
X580786Y101438D01*
X585052Y103205D01*
X604748Y103205D01*
X609014Y101438D01*
X612278Y98174D01*
X612416Y97839D01*
X612453Y97788D01*
X612484Y97732D01*
X612503Y97718D01*
X612517Y97699D01*
X612574Y97669D01*
X612625Y97632D01*
X612652Y97627D01*
X612670Y97617D01*
X612708Y97616D01*
X612768Y97605D01*
X623107Y97605D01*
X623181Y97622D01*
X623255Y97635D01*
X623266Y97642D01*
X623275Y97644D01*
X623304Y97668D01*
X623376Y97716D01*
X640259Y114599D01*
X642686Y115605D01*
X645936Y115605D01*
X646010Y115622D01*
X646085Y115635D01*
X646095Y115642D01*
X646105Y115644D01*
X646134Y115668D01*
X646205Y115716D01*
X646989Y116500D01*
X650240Y117847D01*
X653760Y117847D01*
X657011Y116500D01*
X659500Y114011D01*
X660847Y110760D01*
X660847Y107240D01*
X659500Y103989D01*
X657011Y101500D01*
X653760Y100153D01*
X650240Y100153D01*
X646989Y101500D01*
X646684Y101805D01*
X646640Y101832D01*
X646603Y101867D01*
X646568Y101877D01*
X646536Y101897D01*
X646486Y101902D01*
X646437Y101916D01*
X646400Y101910D01*
X646364Y101913D01*
X646316Y101895D01*
X646266Y101886D01*
X646231Y101862D01*
X646202Y101852D01*
X646181Y101829D01*
X646146Y101805D01*
X629741Y85401D01*
X627314Y84395D01*
X611804Y84395D01*
X611730Y84378D01*
X611656Y84365D01*
X611645Y84358D01*
X611636Y84356D01*
X611607Y84332D01*
X611535Y84284D01*
X609014Y81762D01*
X604748Y79995D01*
X585052Y79995D01*
G37*
%LPD*%
%LPC*%
G36*
X491586Y259539D02*
X491586Y259539D01*
X485462Y262076D01*
X480776Y266762D01*
X478239Y272886D01*
X478239Y279514D01*
X480776Y285638D01*
X485462Y290324D01*
X491586Y292861D01*
X498214Y292861D01*
X504338Y290324D01*
X509024Y285638D01*
X511561Y279514D01*
X511561Y272886D01*
X509024Y266762D01*
X504338Y262076D01*
X498214Y259539D01*
X491586Y259539D01*
G37*
%LPD*%
%LPC*%
G36*
X381852Y435595D02*
X381852Y435595D01*
X377586Y437362D01*
X374322Y440626D01*
X372555Y444892D01*
X372555Y449508D01*
X374322Y453774D01*
X377586Y457038D01*
X381852Y458805D01*
X401548Y458805D01*
X405814Y457038D01*
X409078Y453774D01*
X410845Y449508D01*
X410845Y444892D01*
X409078Y440626D01*
X405814Y437362D01*
X401548Y435595D01*
X381852Y435595D01*
G37*
%LPD*%
%LPC*%
G36*
X585052Y105395D02*
X585052Y105395D01*
X580786Y107162D01*
X577522Y110426D01*
X575755Y114692D01*
X575755Y119308D01*
X577522Y123574D01*
X580786Y126838D01*
X585052Y128605D01*
X604748Y128605D01*
X609014Y126838D01*
X612278Y123574D01*
X614045Y119308D01*
X614045Y114692D01*
X612278Y110426D01*
X609014Y107162D01*
X604748Y105395D01*
X585052Y105395D01*
G37*
%LPD*%
%LPC*%
G36*
X381852Y410195D02*
X381852Y410195D01*
X377586Y411962D01*
X374322Y415226D01*
X372555Y419492D01*
X372555Y424108D01*
X374322Y428374D01*
X377586Y431638D01*
X381852Y433405D01*
X401548Y433405D01*
X405814Y431638D01*
X409078Y428374D01*
X410845Y424108D01*
X410845Y419492D01*
X409078Y415226D01*
X405814Y411962D01*
X401548Y410195D01*
X381852Y410195D01*
G37*
%LPD*%
%LPC*%
G36*
X105012Y117695D02*
X105012Y117695D01*
X100746Y119462D01*
X97482Y122726D01*
X95715Y126992D01*
X95715Y131608D01*
X97482Y135874D01*
X100746Y139138D01*
X105012Y140905D01*
X124708Y140905D01*
X128974Y139138D01*
X132238Y135874D01*
X134005Y131608D01*
X134005Y126992D01*
X132238Y122726D01*
X128974Y119462D01*
X124708Y117695D01*
X105012Y117695D01*
G37*
%LPD*%
%LPC*%
G36*
X320912Y117695D02*
X320912Y117695D01*
X316646Y119462D01*
X313382Y122726D01*
X311615Y126992D01*
X311615Y131608D01*
X313382Y135874D01*
X316646Y139138D01*
X320912Y140905D01*
X340608Y140905D01*
X344874Y139138D01*
X348138Y135874D01*
X349905Y131608D01*
X349905Y126992D01*
X348138Y122726D01*
X344874Y119462D01*
X340608Y117695D01*
X320912Y117695D01*
G37*
%LPD*%
%LPC*%
G36*
X320912Y143095D02*
X320912Y143095D01*
X316646Y144862D01*
X313382Y148126D01*
X311615Y152392D01*
X311615Y157008D01*
X313382Y161274D01*
X316646Y164538D01*
X320912Y166305D01*
X340608Y166305D01*
X344874Y164538D01*
X348138Y161274D01*
X349905Y157008D01*
X349905Y152392D01*
X348138Y148126D01*
X344874Y144862D01*
X340608Y143095D01*
X320912Y143095D01*
G37*
%LPD*%
%LPC*%
G36*
X381852Y384795D02*
X381852Y384795D01*
X377586Y386562D01*
X374322Y389826D01*
X372555Y394092D01*
X372555Y398708D01*
X374322Y402974D01*
X377586Y406238D01*
X381852Y408005D01*
X401548Y408005D01*
X405814Y406238D01*
X409078Y402974D01*
X410845Y398708D01*
X410845Y394092D01*
X409078Y389826D01*
X405814Y386562D01*
X401548Y384795D01*
X381852Y384795D01*
G37*
%LPD*%
%LPC*%
G36*
X663252Y158575D02*
X663252Y158575D01*
X658986Y160342D01*
X655722Y163606D01*
X653955Y167872D01*
X653955Y172488D01*
X655722Y176754D01*
X658986Y180018D01*
X663252Y181785D01*
X682948Y181785D01*
X687214Y180018D01*
X690478Y176754D01*
X692245Y172488D01*
X692245Y167872D01*
X690478Y163606D01*
X687214Y160342D01*
X682948Y158575D01*
X663252Y158575D01*
G37*
%LPD*%
%LPC*%
G36*
X585052Y333995D02*
X585052Y333995D01*
X580786Y335762D01*
X577522Y339026D01*
X575755Y343292D01*
X575755Y347908D01*
X577522Y352174D01*
X580786Y355438D01*
X585052Y357205D01*
X604748Y357205D01*
X609014Y355438D01*
X612278Y352174D01*
X614045Y347908D01*
X614045Y343292D01*
X612278Y339026D01*
X609014Y335762D01*
X604748Y333995D01*
X585052Y333995D01*
G37*
%LPD*%
%LPC*%
G36*
X381852Y308595D02*
X381852Y308595D01*
X377586Y310362D01*
X374322Y313626D01*
X372555Y317892D01*
X372555Y322508D01*
X374322Y326774D01*
X377586Y330038D01*
X381852Y331805D01*
X401548Y331805D01*
X405814Y330038D01*
X409078Y326774D01*
X410845Y322508D01*
X410845Y317892D01*
X409078Y313626D01*
X405814Y310362D01*
X401548Y308595D01*
X381852Y308595D01*
G37*
%LPD*%
%LPC*%
G36*
X585052Y308595D02*
X585052Y308595D01*
X580786Y310362D01*
X577522Y313626D01*
X575755Y317892D01*
X575755Y322508D01*
X577522Y326774D01*
X580786Y330038D01*
X585052Y331805D01*
X604748Y331805D01*
X609014Y330038D01*
X612278Y326774D01*
X614045Y322508D01*
X614045Y317892D01*
X612278Y313626D01*
X609014Y310362D01*
X604748Y308595D01*
X585052Y308595D01*
G37*
%LPD*%
%LPC*%
G36*
X585052Y283195D02*
X585052Y283195D01*
X580786Y284962D01*
X577522Y288226D01*
X575755Y292492D01*
X575755Y297108D01*
X577522Y301374D01*
X580786Y304638D01*
X585052Y306405D01*
X604748Y306405D01*
X609014Y304638D01*
X612278Y301374D01*
X614045Y297108D01*
X614045Y292492D01*
X612278Y288226D01*
X609014Y284962D01*
X604748Y283195D01*
X585052Y283195D01*
G37*
%LPD*%
%LPC*%
G36*
X381852Y257795D02*
X381852Y257795D01*
X377586Y259562D01*
X374322Y262826D01*
X372555Y267092D01*
X372555Y271708D01*
X374322Y275974D01*
X377586Y279238D01*
X381852Y281005D01*
X401548Y281005D01*
X405814Y279238D01*
X409078Y275974D01*
X410845Y271708D01*
X410845Y267092D01*
X409078Y262826D01*
X405814Y259562D01*
X401548Y257795D01*
X381852Y257795D01*
G37*
%LPD*%
%LPC*%
G36*
X585052Y257795D02*
X585052Y257795D01*
X580786Y259562D01*
X577522Y262826D01*
X575755Y267092D01*
X575755Y271708D01*
X577522Y275974D01*
X580786Y279238D01*
X585052Y281005D01*
X604748Y281005D01*
X609014Y279238D01*
X612278Y275974D01*
X614045Y271708D01*
X614045Y267092D01*
X612278Y262826D01*
X609014Y259562D01*
X604748Y257795D01*
X585052Y257795D01*
G37*
%LPD*%
%LPC*%
G36*
X381852Y232395D02*
X381852Y232395D01*
X377586Y234162D01*
X374322Y237426D01*
X372555Y241692D01*
X372555Y246308D01*
X374322Y250574D01*
X377586Y253838D01*
X381852Y255605D01*
X401548Y255605D01*
X405814Y253838D01*
X409078Y250574D01*
X410845Y246308D01*
X410845Y241692D01*
X409078Y237426D01*
X405814Y234162D01*
X401548Y232395D01*
X381852Y232395D01*
G37*
%LPD*%
%LPC*%
G36*
X381852Y54595D02*
X381852Y54595D01*
X377586Y56362D01*
X374322Y59626D01*
X372555Y63892D01*
X372555Y68508D01*
X374322Y72774D01*
X377586Y76038D01*
X381852Y77805D01*
X401548Y77805D01*
X405814Y76038D01*
X409078Y72774D01*
X410845Y68508D01*
X410845Y63892D01*
X409078Y59626D01*
X405814Y56362D01*
X401548Y54595D01*
X381852Y54595D01*
G37*
%LPD*%
%LPC*%
G36*
X320912Y66895D02*
X320912Y66895D01*
X316646Y68662D01*
X313382Y71926D01*
X311615Y76192D01*
X311615Y80808D01*
X313382Y85074D01*
X316646Y88338D01*
X320912Y90105D01*
X340608Y90105D01*
X344874Y88338D01*
X348138Y85074D01*
X349905Y80808D01*
X349905Y76192D01*
X348138Y71926D01*
X344874Y68662D01*
X340608Y66895D01*
X320912Y66895D01*
G37*
%LPD*%
%LPC*%
G36*
X663252Y183975D02*
X663252Y183975D01*
X658986Y185742D01*
X655722Y189006D01*
X653955Y193272D01*
X653955Y197888D01*
X655722Y202154D01*
X658986Y205418D01*
X663252Y207185D01*
X682948Y207185D01*
X687214Y205418D01*
X690478Y202154D01*
X692245Y197888D01*
X692245Y193272D01*
X690478Y189006D01*
X687214Y185742D01*
X682948Y183975D01*
X663252Y183975D01*
G37*
%LPD*%
%LPC*%
G36*
X105012Y92295D02*
X105012Y92295D01*
X100746Y94062D01*
X97482Y97326D01*
X95715Y101592D01*
X95715Y106208D01*
X97482Y110474D01*
X100746Y113738D01*
X105012Y115505D01*
X124708Y115505D01*
X128974Y113738D01*
X132238Y110474D01*
X134005Y106208D01*
X134005Y101592D01*
X132238Y97326D01*
X128974Y94062D01*
X124708Y92295D01*
X105012Y92295D01*
G37*
%LPD*%
%LPC*%
G36*
X320912Y92295D02*
X320912Y92295D01*
X316646Y94062D01*
X313382Y97326D01*
X311615Y101592D01*
X311615Y106208D01*
X313382Y110474D01*
X316646Y113738D01*
X320912Y115505D01*
X340608Y115505D01*
X344874Y113738D01*
X348138Y110474D01*
X349905Y106208D01*
X349905Y101592D01*
X348138Y97326D01*
X344874Y94062D01*
X340608Y92295D01*
X320912Y92295D01*
G37*
%LPD*%
%LPC*%
G36*
X320912Y41495D02*
X320912Y41495D01*
X316646Y43262D01*
X313382Y46526D01*
X311615Y50792D01*
X311615Y55408D01*
X313382Y59674D01*
X316646Y62938D01*
X320912Y64705D01*
X340608Y64705D01*
X344874Y62938D01*
X348138Y59674D01*
X349905Y55408D01*
X349905Y50792D01*
X348138Y46526D01*
X344874Y43262D01*
X340608Y41495D01*
X320912Y41495D01*
G37*
%LPD*%
%LPC*%
G36*
X491884Y336039D02*
X491884Y336039D01*
X486312Y338347D01*
X482047Y342612D01*
X479739Y348184D01*
X479739Y354216D01*
X482047Y359788D01*
X486312Y364053D01*
X491884Y366361D01*
X497916Y366361D01*
X503488Y364053D01*
X507753Y359788D01*
X510061Y354216D01*
X510061Y348184D01*
X507753Y342612D01*
X503488Y338347D01*
X497916Y336039D01*
X491884Y336039D01*
G37*
%LPD*%
%LPC*%
G36*
X503644Y15239D02*
X503644Y15239D01*
X499349Y17018D01*
X496062Y20305D01*
X494283Y24600D01*
X494283Y29248D01*
X496062Y33543D01*
X499349Y36830D01*
X503644Y38609D01*
X508292Y38609D01*
X512587Y36830D01*
X515874Y33543D01*
X517653Y29248D01*
X517653Y24600D01*
X515874Y20305D01*
X512587Y17018D01*
X508292Y15239D01*
X503644Y15239D01*
G37*
%LPD*%
%LPC*%
G36*
X529044Y15239D02*
X529044Y15239D01*
X524749Y17018D01*
X521462Y20305D01*
X519683Y24600D01*
X519683Y29248D01*
X521462Y33543D01*
X524749Y36830D01*
X529044Y38609D01*
X533692Y38609D01*
X537987Y36830D01*
X541274Y33543D01*
X543053Y29248D01*
X543053Y24600D01*
X541274Y20305D01*
X537987Y17018D01*
X533692Y15239D01*
X529044Y15239D01*
G37*
%LPD*%
%LPC*%
G36*
X452844Y15239D02*
X452844Y15239D01*
X448549Y17018D01*
X445262Y20305D01*
X443483Y24600D01*
X443483Y29248D01*
X445262Y33543D01*
X448549Y36830D01*
X452844Y38609D01*
X457492Y38609D01*
X461787Y36830D01*
X465074Y33543D01*
X466853Y29248D01*
X466853Y24600D01*
X465074Y20305D01*
X461787Y17018D01*
X457492Y15239D01*
X452844Y15239D01*
G37*
%LPD*%
%LPC*%
G36*
X478244Y15239D02*
X478244Y15239D01*
X473949Y17018D01*
X470662Y20305D01*
X468883Y24600D01*
X468883Y29248D01*
X470662Y33543D01*
X473949Y36830D01*
X478244Y38609D01*
X482892Y38609D01*
X487187Y36830D01*
X490474Y33543D01*
X492253Y29248D01*
X492253Y24600D01*
X490474Y20305D01*
X487187Y17018D01*
X482892Y15239D01*
X478244Y15239D01*
G37*
%LPD*%
%LPC*%
G36*
X427444Y15239D02*
X427444Y15239D01*
X423149Y17018D01*
X419862Y20305D01*
X418083Y24600D01*
X418083Y29248D01*
X419862Y33543D01*
X423149Y36830D01*
X427444Y38609D01*
X432092Y38609D01*
X436387Y36830D01*
X439674Y33543D01*
X441453Y29248D01*
X441453Y24600D01*
X439674Y20305D01*
X436387Y17018D01*
X432092Y15239D01*
X427444Y15239D01*
G37*
%LPD*%
%LPC*%
G36*
X247141Y229361D02*
X247141Y229361D01*
X247141Y238681D01*
X254713Y238681D01*
X256281Y238432D01*
X257790Y237942D01*
X259204Y237222D01*
X260487Y236289D01*
X261450Y235326D01*
X261472Y235313D01*
X261488Y235293D01*
X261545Y235267D01*
X261597Y235235D01*
X261623Y235232D01*
X261647Y235222D01*
X261708Y235224D01*
X261770Y235218D01*
X261794Y235227D01*
X261820Y235228D01*
X261874Y235258D01*
X261932Y235280D01*
X261949Y235299D01*
X261972Y235311D01*
X262007Y235362D01*
X262049Y235407D01*
X262057Y235432D01*
X262072Y235453D01*
X262088Y235537D01*
X262099Y235573D01*
X262097Y235583D01*
X262099Y235595D01*
X262099Y237233D01*
X262348Y238801D01*
X262838Y240310D01*
X263558Y241724D01*
X264491Y243007D01*
X265613Y244129D01*
X266896Y245062D01*
X268310Y245782D01*
X269819Y246272D01*
X271387Y246521D01*
X271419Y246521D01*
X271419Y229661D01*
X264381Y229661D01*
X264331Y229650D01*
X264280Y229648D01*
X264248Y229630D01*
X264212Y229622D01*
X264173Y229589D01*
X264128Y229565D01*
X264107Y229535D01*
X264079Y229512D01*
X264058Y229465D01*
X264028Y229423D01*
X264020Y229381D01*
X264011Y229361D01*
X247141Y229361D01*
G37*
%LPD*%
%LPC*%
G36*
X271387Y211279D02*
X271387Y211279D01*
X269819Y211528D01*
X268310Y212018D01*
X266896Y212738D01*
X265613Y213671D01*
X264491Y214793D01*
X263558Y216076D01*
X262838Y217490D01*
X262348Y218999D01*
X262099Y220567D01*
X262099Y221605D01*
X262093Y221630D01*
X262096Y221656D01*
X262074Y221714D01*
X262060Y221774D01*
X262043Y221794D01*
X262034Y221818D01*
X261989Y221860D01*
X261950Y221907D01*
X261926Y221918D01*
X261907Y221935D01*
X261848Y221953D01*
X261791Y221978D01*
X261766Y221977D01*
X261741Y221985D01*
X261680Y221974D01*
X261618Y221972D01*
X261596Y221959D01*
X261570Y221955D01*
X261499Y221907D01*
X261466Y221889D01*
X261460Y221881D01*
X261450Y221874D01*
X260487Y220911D01*
X259204Y219978D01*
X257790Y219258D01*
X256281Y218768D01*
X254713Y218519D01*
X247141Y218519D01*
X247141Y227839D01*
X261719Y227839D01*
X261769Y227850D01*
X261820Y227852D01*
X261852Y227870D01*
X261888Y227878D01*
X261927Y227911D01*
X261972Y227935D01*
X261993Y227965D01*
X262021Y227988D01*
X262042Y228035D01*
X262072Y228077D01*
X262080Y228119D01*
X262089Y228139D01*
X271419Y228139D01*
X271419Y211279D01*
X271387Y211279D01*
G37*
%LPD*%
%LPC*%
G36*
X339761Y421761D02*
X339761Y421761D01*
X339761Y436241D01*
X352035Y436241D01*
X352681Y436068D01*
X353260Y435733D01*
X353733Y435260D01*
X354068Y434681D01*
X354241Y434035D01*
X354241Y421761D01*
X339761Y421761D01*
G37*
%LPD*%
%LPC*%
G36*
X323759Y421761D02*
X323759Y421761D01*
X323759Y434035D01*
X323932Y434681D01*
X324267Y435260D01*
X324740Y435733D01*
X325319Y436068D01*
X325965Y436241D01*
X338239Y436241D01*
X338239Y421761D01*
X323759Y421761D01*
G37*
%LPD*%
%LPC*%
G36*
X339761Y405759D02*
X339761Y405759D01*
X339761Y420239D01*
X354241Y420239D01*
X354241Y407965D01*
X354068Y407319D01*
X353733Y406740D01*
X353260Y406267D01*
X352681Y405932D01*
X352035Y405759D01*
X339761Y405759D01*
G37*
%LPD*%
%LPC*%
G36*
X325965Y405759D02*
X325965Y405759D01*
X325319Y405932D01*
X324740Y406267D01*
X324267Y406740D01*
X323932Y407319D01*
X323759Y407965D01*
X323759Y420239D01*
X338239Y420239D01*
X338239Y405759D01*
X325965Y405759D01*
G37*
%LPD*%
%LPC*%
G36*
X670475Y373653D02*
X670475Y373653D01*
X670475Y373692D01*
X670725Y375271D01*
X671220Y376792D01*
X671946Y378217D01*
X672886Y379511D01*
X674017Y380642D01*
X675311Y381582D01*
X676736Y382308D01*
X678257Y382803D01*
X679836Y383053D01*
X687495Y383053D01*
X687495Y373653D01*
X670475Y373653D01*
G37*
%LPD*%
%LPC*%
G36*
X679836Y362731D02*
X679836Y362731D01*
X678257Y362981D01*
X676736Y363476D01*
X675311Y364202D01*
X674017Y365142D01*
X672886Y366273D01*
X671946Y367567D01*
X671220Y368992D01*
X670725Y370513D01*
X670475Y372092D01*
X670475Y372131D01*
X687495Y372131D01*
X687495Y362731D01*
X679836Y362731D01*
G37*
%LPD*%
%LPC*%
G36*
X392461Y371761D02*
X392461Y371761D01*
X392461Y381081D01*
X400033Y381081D01*
X401601Y380832D01*
X403110Y380342D01*
X404524Y379622D01*
X405807Y378689D01*
X406929Y377567D01*
X407862Y376284D01*
X408582Y374870D01*
X409072Y373361D01*
X409321Y371793D01*
X409321Y371761D01*
X392461Y371761D01*
G37*
%LPD*%
%LPC*%
G36*
X298341Y229661D02*
X298341Y229661D01*
X298341Y246521D01*
X298373Y246521D01*
X299941Y246272D01*
X301450Y245782D01*
X302864Y245062D01*
X304147Y244129D01*
X305269Y243007D01*
X306202Y241724D01*
X306922Y240310D01*
X307412Y238801D01*
X307661Y237233D01*
X307661Y229661D01*
X298341Y229661D01*
G37*
%LPD*%
%LPC*%
G36*
X272941Y229661D02*
X272941Y229661D01*
X272941Y246521D01*
X272973Y246521D01*
X274541Y246272D01*
X276050Y245782D01*
X277464Y245062D01*
X278747Y244129D01*
X279869Y243007D01*
X280802Y241724D01*
X281522Y240310D01*
X282012Y238801D01*
X282261Y237233D01*
X282261Y229661D01*
X272941Y229661D01*
G37*
%LPD*%
%LPC*%
G36*
X272941Y39161D02*
X272941Y39161D01*
X272941Y56021D01*
X272973Y56021D01*
X274541Y55772D01*
X276050Y55282D01*
X277464Y54562D01*
X278747Y53629D01*
X279869Y52507D01*
X280802Y51224D01*
X281522Y49810D01*
X282012Y48301D01*
X282261Y46733D01*
X282261Y39161D01*
X272941Y39161D01*
G37*
%LPD*%
%LPC*%
G36*
X673861Y145541D02*
X673861Y145541D01*
X673861Y154861D01*
X681433Y154861D01*
X683001Y154612D01*
X684510Y154122D01*
X685924Y153402D01*
X687207Y152469D01*
X688329Y151347D01*
X689262Y150064D01*
X689982Y148650D01*
X690472Y147141D01*
X690721Y145573D01*
X690721Y145541D01*
X673861Y145541D01*
G37*
%LPD*%
%LPC*%
G36*
X298341Y39161D02*
X298341Y39161D01*
X298341Y56021D01*
X298373Y56021D01*
X299941Y55772D01*
X301450Y55282D01*
X302864Y54562D01*
X304147Y53629D01*
X305269Y52507D01*
X306202Y51224D01*
X306922Y49810D01*
X307412Y48301D01*
X307661Y46733D01*
X307661Y39161D01*
X298341Y39161D01*
G37*
%LPD*%
%LPC*%
G36*
X115621Y79261D02*
X115621Y79261D01*
X115621Y88581D01*
X123193Y88581D01*
X124761Y88332D01*
X126270Y87842D01*
X127684Y87122D01*
X128967Y86189D01*
X130089Y85067D01*
X131022Y83784D01*
X131742Y82370D01*
X132232Y80861D01*
X132481Y79293D01*
X132481Y79261D01*
X115621Y79261D01*
G37*
%LPD*%
%LPC*%
G36*
X655479Y145541D02*
X655479Y145541D01*
X655479Y145573D01*
X655728Y147141D01*
X656218Y148650D01*
X656938Y150064D01*
X657871Y151347D01*
X658993Y152469D01*
X660276Y153402D01*
X661690Y154122D01*
X663199Y154612D01*
X664767Y154861D01*
X672339Y154861D01*
X672339Y145541D01*
X655479Y145541D01*
G37*
%LPD*%
%LPC*%
G36*
X298341Y211279D02*
X298341Y211279D01*
X298341Y228139D01*
X307661Y228139D01*
X307661Y220567D01*
X307412Y218999D01*
X306922Y217490D01*
X306202Y216076D01*
X305269Y214793D01*
X304147Y213671D01*
X302864Y212738D01*
X301450Y212018D01*
X299941Y211528D01*
X298373Y211279D01*
X298341Y211279D01*
G37*
%LPD*%
%LPC*%
G36*
X663491Y122461D02*
X663491Y122461D01*
X663491Y122493D01*
X663740Y124061D01*
X664230Y125570D01*
X664950Y126984D01*
X665883Y128267D01*
X667005Y129389D01*
X668288Y130322D01*
X669702Y131042D01*
X671211Y131532D01*
X672779Y131781D01*
X680351Y131781D01*
X680351Y122461D01*
X663491Y122461D01*
G37*
%LPD*%
%LPC*%
G36*
X272941Y211279D02*
X272941Y211279D01*
X272941Y228139D01*
X282261Y228139D01*
X282261Y220567D01*
X282012Y218999D01*
X281522Y217490D01*
X280802Y216076D01*
X279869Y214793D01*
X278747Y213671D01*
X277464Y212738D01*
X276050Y212018D01*
X274541Y211528D01*
X272973Y211279D01*
X272941Y211279D01*
G37*
%LPD*%
%LPC*%
G36*
X374079Y371761D02*
X374079Y371761D01*
X374079Y371793D01*
X374328Y373361D01*
X374818Y374870D01*
X375538Y376284D01*
X376471Y377567D01*
X377593Y378689D01*
X378876Y379622D01*
X380290Y380342D01*
X381799Y380832D01*
X383367Y381081D01*
X390939Y381081D01*
X390939Y371761D01*
X374079Y371761D01*
G37*
%LPD*%
%LPC*%
G36*
X298341Y20779D02*
X298341Y20779D01*
X298341Y37639D01*
X307661Y37639D01*
X307661Y30067D01*
X307412Y28499D01*
X306922Y26990D01*
X306202Y25576D01*
X305269Y24293D01*
X304147Y23171D01*
X302864Y22238D01*
X301450Y21518D01*
X299941Y21028D01*
X298373Y20779D01*
X298341Y20779D01*
G37*
%LPD*%
%LPC*%
G36*
X272941Y20779D02*
X272941Y20779D01*
X272941Y37639D01*
X282261Y37639D01*
X282261Y30067D01*
X282012Y28499D01*
X281522Y26990D01*
X280802Y25576D01*
X279869Y24293D01*
X278747Y23171D01*
X277464Y22238D01*
X276050Y21518D01*
X274541Y21028D01*
X272973Y20779D01*
X272941Y20779D01*
G37*
%LPD*%
%LPC*%
G36*
X287499Y39161D02*
X287499Y39161D01*
X287499Y46733D01*
X287748Y48301D01*
X288238Y49810D01*
X288958Y51224D01*
X289891Y52507D01*
X291013Y53629D01*
X292296Y54562D01*
X293710Y55282D01*
X295219Y55772D01*
X296787Y56021D01*
X296819Y56021D01*
X296819Y39161D01*
X287499Y39161D01*
G37*
%LPD*%
%LPC*%
G36*
X673861Y210899D02*
X673861Y210899D01*
X673861Y220219D01*
X690721Y220219D01*
X690721Y220187D01*
X690472Y218619D01*
X689982Y217110D01*
X689262Y215696D01*
X688329Y214413D01*
X687207Y213291D01*
X685924Y212358D01*
X684510Y211638D01*
X683001Y211148D01*
X681433Y210899D01*
X673861Y210899D01*
G37*
%LPD*%
%LPC*%
G36*
X673861Y134699D02*
X673861Y134699D01*
X673861Y144019D01*
X690721Y144019D01*
X690721Y143987D01*
X690472Y142419D01*
X689982Y140910D01*
X689262Y139496D01*
X688329Y138213D01*
X687207Y137091D01*
X685924Y136158D01*
X684510Y135438D01*
X683001Y134948D01*
X681433Y134699D01*
X673861Y134699D01*
G37*
%LPD*%
%LPC*%
G36*
X287499Y229661D02*
X287499Y229661D01*
X287499Y237233D01*
X287748Y238801D01*
X288238Y240310D01*
X288958Y241724D01*
X289891Y243007D01*
X291013Y244129D01*
X292296Y245062D01*
X293710Y245782D01*
X295219Y246272D01*
X296787Y246521D01*
X296819Y246521D01*
X296819Y229661D01*
X287499Y229661D01*
G37*
%LPD*%
%LPC*%
G36*
X262099Y39161D02*
X262099Y39161D01*
X262099Y46733D01*
X262348Y48301D01*
X262838Y49810D01*
X263558Y51224D01*
X264491Y52507D01*
X265613Y53629D01*
X266896Y54562D01*
X268310Y55282D01*
X269819Y55772D01*
X271387Y56021D01*
X271419Y56021D01*
X271419Y39161D01*
X262099Y39161D01*
G37*
%LPD*%
%LPC*%
G36*
X392461Y360919D02*
X392461Y360919D01*
X392461Y370239D01*
X409321Y370239D01*
X409321Y370207D01*
X409072Y368639D01*
X408582Y367130D01*
X407862Y365716D01*
X406929Y364433D01*
X405807Y363311D01*
X404524Y362378D01*
X403110Y361658D01*
X401601Y361168D01*
X400033Y360919D01*
X392461Y360919D01*
G37*
%LPD*%
%LPC*%
G36*
X115621Y68419D02*
X115621Y68419D01*
X115621Y77739D01*
X132481Y77739D01*
X132481Y77707D01*
X132232Y76139D01*
X131742Y74630D01*
X131022Y73216D01*
X130089Y71933D01*
X128967Y70811D01*
X127684Y69878D01*
X126270Y69158D01*
X124761Y68668D01*
X123193Y68419D01*
X115621Y68419D01*
G37*
%LPD*%
%LPC*%
G36*
X664767Y210899D02*
X664767Y210899D01*
X663199Y211148D01*
X661690Y211638D01*
X660276Y212358D01*
X658993Y213291D01*
X657871Y214413D01*
X656938Y215696D01*
X656218Y217110D01*
X655728Y218619D01*
X655479Y220187D01*
X655479Y220219D01*
X672339Y220219D01*
X672339Y210899D01*
X664767Y210899D01*
G37*
%LPD*%
%LPC*%
G36*
X672779Y111619D02*
X672779Y111619D01*
X671211Y111868D01*
X669702Y112358D01*
X668288Y113078D01*
X667005Y114011D01*
X665883Y115133D01*
X664950Y116416D01*
X664230Y117830D01*
X663740Y119339D01*
X663491Y120907D01*
X663491Y120939D01*
X680351Y120939D01*
X680351Y111619D01*
X672779Y111619D01*
G37*
%LPD*%
%LPC*%
G36*
X664767Y134699D02*
X664767Y134699D01*
X663199Y134948D01*
X661690Y135438D01*
X660276Y136158D01*
X658993Y137091D01*
X657871Y138213D01*
X656938Y139496D01*
X656218Y140910D01*
X655728Y142419D01*
X655479Y143987D01*
X655479Y144019D01*
X672339Y144019D01*
X672339Y134699D01*
X664767Y134699D01*
G37*
%LPD*%
%LPC*%
G36*
X296787Y211279D02*
X296787Y211279D01*
X295219Y211528D01*
X293710Y212018D01*
X292296Y212738D01*
X291013Y213671D01*
X289891Y214793D01*
X288958Y216076D01*
X288238Y217490D01*
X287748Y218999D01*
X287499Y220567D01*
X287499Y228139D01*
X296819Y228139D01*
X296819Y211279D01*
X296787Y211279D01*
G37*
%LPD*%
%LPC*%
G36*
X383367Y360919D02*
X383367Y360919D01*
X381799Y361168D01*
X380290Y361658D01*
X378876Y362378D01*
X377593Y363311D01*
X376471Y364433D01*
X375538Y365716D01*
X374818Y367130D01*
X374328Y368639D01*
X374079Y370207D01*
X374079Y370239D01*
X390939Y370239D01*
X390939Y360919D01*
X383367Y360919D01*
G37*
%LPD*%
%LPC*%
G36*
X296787Y20779D02*
X296787Y20779D01*
X295219Y21028D01*
X293710Y21518D01*
X292296Y22238D01*
X291013Y23171D01*
X289891Y24293D01*
X288958Y25576D01*
X288238Y26990D01*
X287748Y28499D01*
X287499Y30067D01*
X287499Y37639D01*
X296819Y37639D01*
X296819Y20779D01*
X296787Y20779D01*
G37*
%LPD*%
%LPC*%
G36*
X271387Y20779D02*
X271387Y20779D01*
X269819Y21028D01*
X268310Y21518D01*
X266896Y22238D01*
X265613Y23171D01*
X264491Y24293D01*
X263558Y25576D01*
X262838Y26990D01*
X262348Y28499D01*
X262099Y30067D01*
X262099Y37639D01*
X271419Y37639D01*
X271419Y20779D01*
X271387Y20779D01*
G37*
%LPD*%
%LPC*%
G36*
X557529Y27685D02*
X557529Y27685D01*
X557529Y37085D01*
X557568Y37085D01*
X559147Y36835D01*
X560668Y36340D01*
X562093Y35614D01*
X563387Y34674D01*
X564518Y33543D01*
X565458Y32249D01*
X566184Y30824D01*
X566679Y29303D01*
X566929Y27724D01*
X566929Y27685D01*
X557529Y27685D01*
G37*
%LPD*%
%LPC*%
G36*
X546607Y27685D02*
X546607Y27685D01*
X546607Y27724D01*
X546857Y29303D01*
X547352Y30824D01*
X548078Y32249D01*
X549018Y33543D01*
X550149Y34674D01*
X551443Y35614D01*
X552868Y36340D01*
X554389Y36835D01*
X555968Y37085D01*
X556007Y37085D01*
X556007Y27685D01*
X546607Y27685D01*
G37*
%LPD*%
%LPC*%
G36*
X557529Y16763D02*
X557529Y16763D01*
X557529Y26163D01*
X566929Y26163D01*
X566929Y26124D01*
X566679Y24545D01*
X566184Y23024D01*
X565458Y21599D01*
X564518Y20305D01*
X563387Y19174D01*
X562093Y18234D01*
X560668Y17508D01*
X559147Y17013D01*
X557568Y16763D01*
X557529Y16763D01*
G37*
%LPD*%
%LPC*%
G36*
X555968Y16763D02*
X555968Y16763D01*
X554389Y17013D01*
X552868Y17508D01*
X551443Y18234D01*
X550149Y19174D01*
X549018Y20305D01*
X548078Y21599D01*
X547352Y23024D01*
X546857Y24545D01*
X546607Y26124D01*
X546607Y26163D01*
X556007Y26163D01*
X556007Y16763D01*
X555968Y16763D01*
G37*
%LPD*%
%LPC*%
G36*
X297579Y228899D02*
X297579Y228899D01*
X297579Y228901D01*
X297581Y228901D01*
X297581Y228899D01*
X297579Y228899D01*
G37*
%LPD*%
%LPC*%
G36*
X272179Y228899D02*
X272179Y228899D01*
X272179Y228901D01*
X272181Y228901D01*
X272181Y228899D01*
X272179Y228899D01*
G37*
%LPD*%
%LPC*%
G36*
X338999Y420999D02*
X338999Y420999D01*
X338999Y421001D01*
X339001Y421001D01*
X339001Y420999D01*
X338999Y420999D01*
G37*
%LPD*%
%LPC*%
G36*
X673099Y144779D02*
X673099Y144779D01*
X673099Y144781D01*
X673101Y144781D01*
X673101Y144779D01*
X673099Y144779D01*
G37*
%LPD*%
%LPC*%
G36*
X272179Y38399D02*
X272179Y38399D01*
X272179Y38401D01*
X272181Y38401D01*
X272181Y38399D01*
X272179Y38399D01*
G37*
%LPD*%
%LPC*%
G36*
X556767Y26923D02*
X556767Y26923D01*
X556767Y26925D01*
X556769Y26925D01*
X556769Y26923D01*
X556767Y26923D01*
G37*
%LPD*%
%LPC*%
G36*
X391699Y370999D02*
X391699Y370999D01*
X391699Y371001D01*
X391701Y371001D01*
X391701Y370999D01*
X391699Y370999D01*
G37*
%LPD*%
%LPC*%
G36*
X297579Y38399D02*
X297579Y38399D01*
X297579Y38401D01*
X297581Y38401D01*
X297581Y38399D01*
X297579Y38399D01*
G37*
%LPD*%
D10*
X384160Y447200D02*
X399240Y447200D01*
X399240Y421800D02*
X384160Y421800D01*
X384160Y396400D02*
X399240Y396400D01*
X399240Y371000D02*
X384160Y371000D01*
X384160Y345600D02*
X399240Y345600D01*
X399240Y320200D02*
X384160Y320200D01*
X384160Y294800D02*
X399240Y294800D01*
X399240Y269400D02*
X384160Y269400D01*
X384160Y244000D02*
X399240Y244000D01*
X399240Y218600D02*
X384160Y218600D01*
X384160Y193200D02*
X399240Y193200D01*
X399240Y167800D02*
X384160Y167800D01*
X384160Y142400D02*
X399240Y142400D01*
X399240Y117000D02*
X384160Y117000D01*
X384160Y91600D02*
X399240Y91600D01*
X399240Y66200D02*
X384160Y66200D01*
X587360Y66200D02*
X602440Y66200D01*
X602440Y91600D02*
X587360Y91600D01*
X587360Y117000D02*
X602440Y117000D01*
X602440Y142400D02*
X587360Y142400D01*
X587360Y167800D02*
X602440Y167800D01*
X602440Y193200D02*
X587360Y193200D01*
X587360Y218600D02*
X602440Y218600D01*
X602440Y244000D02*
X587360Y244000D01*
X587360Y269400D02*
X602440Y269400D01*
X602440Y294800D02*
X587360Y294800D01*
X587360Y320200D02*
X602440Y320200D01*
X602440Y345600D02*
X587360Y345600D01*
X253920Y330200D02*
X238840Y330200D01*
X238840Y304800D02*
X253920Y304800D01*
X253920Y279400D02*
X238840Y279400D01*
X238840Y254000D02*
X253920Y254000D01*
X253920Y228600D02*
X238840Y228600D01*
X665560Y271780D02*
X680640Y271780D01*
X680640Y246380D02*
X665560Y246380D01*
X665560Y220980D02*
X680640Y220980D01*
X680640Y195580D02*
X665560Y195580D01*
X665560Y170180D02*
X680640Y170180D01*
X680640Y144780D02*
X665560Y144780D01*
X42440Y415056D02*
X27360Y415056D01*
X27360Y389656D02*
X42440Y389656D01*
X42440Y364256D02*
X27360Y364256D01*
X107320Y205500D02*
X122400Y205500D01*
X122400Y180100D02*
X107320Y180100D01*
X107320Y154700D02*
X122400Y154700D01*
X122400Y129300D02*
X107320Y129300D01*
X107320Y103900D02*
X122400Y103900D01*
X122400Y78500D02*
X107320Y78500D01*
X323220Y180100D02*
X338300Y180100D01*
X338300Y154700D02*
X323220Y154700D01*
X323220Y129300D02*
X338300Y129300D01*
X338300Y103900D02*
X323220Y103900D01*
X323220Y78500D02*
X338300Y78500D01*
X338300Y53100D02*
X323220Y53100D01*
X297580Y221360D02*
X297580Y236440D01*
X272180Y236440D02*
X272180Y221360D01*
X183280Y221360D02*
X183280Y236440D01*
X183280Y45940D02*
X183280Y30860D01*
X272180Y30860D02*
X272180Y45940D01*
X297580Y45940D02*
X297580Y30860D01*
D11*
X157880Y38400D03*
X157880Y228900D03*
D12*
X680636Y372892D02*
X695876Y372892D01*
X695876Y347492D02*
X680636Y347492D01*
X680636Y322092D02*
X695876Y322092D01*
D11*
X339000Y281000D03*
X339000Y421000D03*
X119000Y281000D03*
X119000Y421000D03*
D10*
X42540Y324224D02*
X27460Y324224D01*
X27460Y298824D02*
X42540Y298824D01*
X140700Y469460D02*
X140700Y484540D01*
X115300Y484540D02*
X115300Y469460D01*
X197700Y469460D02*
X197700Y484540D01*
X172300Y484540D02*
X172300Y469460D01*
X42540Y260192D02*
X27460Y260192D01*
X27460Y234792D02*
X42540Y234792D01*
D13*
X44382Y109900D02*
X27618Y109900D01*
X27618Y148000D02*
X44382Y148000D01*
X44382Y186100D02*
X27618Y186100D01*
D10*
X673572Y96300D02*
X688652Y96300D01*
X688652Y121700D02*
X673572Y121700D01*
D14*
X480568Y26924D03*
X455168Y26924D03*
X429768Y26924D03*
X505968Y26924D03*
X531368Y26924D03*
X556768Y26924D03*
D15*
X35000Y364156D02*
X34900Y364256D01*
X35000Y364156D02*
X35000Y324224D01*
X48616Y324224D01*
X60904Y311936D01*
X60904Y268792D01*
X52304Y260192D02*
X35000Y260192D01*
X52304Y260192D02*
X60904Y268792D01*
D16*
X458828Y207256D03*
D17*
X459140Y206944D01*
X528292Y206944D01*
D18*
X577348Y256000D01*
X612000Y256000D01*
D17*
X634000Y256000D01*
X651000Y273000D02*
X651000Y367000D01*
X656892Y372892D01*
X688256Y372892D01*
X651000Y273000D02*
X634000Y256000D01*
D15*
X339000Y402000D02*
X339000Y421000D01*
X370000Y371000D02*
X391700Y371000D01*
X370000Y371000D02*
X339000Y402000D01*
X391700Y371000D02*
X431412Y371000D01*
X452460Y392048D01*
X538952Y392048D02*
X542000Y389000D01*
X538952Y392048D02*
X452460Y392048D01*
X542000Y389000D02*
X554000Y389000D01*
X572000Y371000D01*
X686364Y371000D01*
X688256Y372892D01*
D16*
X542000Y389000D03*
X452460Y392048D03*
X233000Y470000D03*
D15*
X214000Y451000D01*
X186000Y451000D01*
X172300Y464700D01*
X172300Y477000D01*
D19*
X272180Y228900D02*
X297580Y228900D01*
X203948Y78500D02*
X114860Y78500D01*
X203948Y78500D02*
X244348Y38100D01*
X271880Y38100D01*
X272180Y38400D01*
X246380Y228600D02*
X246680Y228900D01*
X272180Y228900D01*
X270656Y201976D02*
X270656Y65324D01*
X297580Y38400D01*
X270656Y201976D02*
X297580Y228900D01*
X297580Y299104D01*
X369476Y371000D02*
X391700Y371000D01*
X369476Y371000D02*
X297580Y299104D01*
D20*
X556768Y40132D02*
X556768Y26924D01*
X556768Y40132D02*
X548640Y48260D01*
X391668Y48260D01*
X381000Y37592D01*
X298388Y37592D01*
X297580Y38400D01*
D16*
X466852Y397764D03*
X530352Y397764D03*
D17*
X539116Y389000D01*
X542000Y389000D01*
X466852Y397764D02*
X459104Y390016D01*
X454492Y390016D01*
X452460Y392048D01*
D16*
X269748Y341376D03*
D17*
X269748Y405384D01*
X258572Y416560D01*
X258572Y459232D01*
X247804Y470000D01*
X233000Y470000D01*
D18*
X594900Y66200D02*
X632134Y66200D01*
X649114Y83180D01*
X693512Y83180D01*
X700792Y90460D01*
X700792Y291840D01*
D17*
X691388Y301244D01*
X671576Y301244D01*
X661416Y311404D01*
X661416Y335788D01*
X673120Y347492D02*
X688256Y347492D01*
X673120Y347492D02*
X661416Y335788D01*
D18*
X626000Y91000D02*
X595500Y91000D01*
X594900Y91600D01*
X644000Y109000D02*
X652000Y109000D01*
D16*
X652000Y109000D03*
D18*
X644000Y109000D02*
X626000Y91000D01*
D19*
X183280Y228900D02*
X157880Y228900D01*
X140700Y435372D02*
X140700Y477000D01*
X182372Y393700D02*
X182880Y393700D01*
X182372Y393700D02*
X140700Y435372D01*
X182880Y393700D02*
X182880Y229300D01*
X183280Y228900D01*
D16*
X109000Y363000D03*
D17*
X94936Y377064D01*
D18*
X20499Y377064D02*
X13208Y369773D01*
X20499Y377064D02*
X94936Y377064D01*
X13208Y369773D02*
X13208Y226060D01*
X33020Y206248D01*
D16*
X91948Y193040D03*
D18*
X78740Y206248D02*
X33020Y206248D01*
X78740Y206248D02*
X91948Y193040D01*
D17*
X90000Y485792D02*
X102000Y497792D01*
X246208Y497792D01*
X270000Y474000D01*
X270000Y420888D01*
D16*
X270000Y420888D03*
D17*
X90000Y429000D02*
X90000Y485792D01*
X50656Y389656D02*
X34900Y389656D01*
X50656Y389656D02*
X90000Y429000D01*
D18*
X393064Y118364D02*
X391700Y117000D01*
X573024Y180340D02*
X612648Y180340D01*
X624840Y192532D01*
X624840Y230124D01*
X641096Y246380D01*
X673100Y246380D01*
X414020Y118364D02*
X393064Y118364D01*
X414020Y118364D02*
X456184Y160528D01*
X553212Y160528D01*
X573024Y180340D01*
X652000Y228000D02*
X654214Y230214D01*
X657000Y233000D01*
D20*
X686000Y233000D01*
X693000Y240000D01*
X693000Y266000D01*
X687220Y271780D01*
X673100Y271780D01*
D18*
X652000Y228000D02*
X637540Y213540D01*
X637540Y177800D01*
X614172Y154432D01*
X567944Y154432D01*
X560832Y147320D01*
X405544Y91600D02*
X391700Y91600D01*
X461264Y147320D02*
X560832Y147320D01*
X461264Y147320D02*
X405544Y91600D01*
D16*
X173228Y121920D03*
D18*
X155448Y139700D01*
X155448Y154940D01*
X143764Y166624D01*
X20320Y166624D02*
X12700Y174244D01*
X12700Y198910D01*
X14958Y201168D02*
X14958Y201676D01*
X14958Y201168D02*
X12700Y198910D01*
D16*
X14958Y201676D03*
D18*
X20320Y166624D02*
X143764Y166624D01*
D16*
X332740Y368808D03*
D19*
X332740Y376428D01*
X306832Y402336D01*
X306832Y453644D01*
X324104Y470916D01*
X584200Y470916D01*
X595376Y459740D01*
D16*
X595376Y459740D03*
X356008Y142400D03*
D18*
X406560Y130208D02*
X449072Y172720D01*
X406560Y130208D02*
X368200Y130208D01*
X356008Y142400D01*
X542544Y172720D02*
X563880Y194056D01*
X594044Y194056D01*
X594900Y193200D01*
X542544Y172720D02*
X449072Y172720D01*
D16*
X367516Y155496D03*
D18*
X441623Y184575D02*
X514106Y184394D01*
X441623Y184575D02*
X412036Y154988D01*
X368024Y154988D01*
X367516Y155496D01*
X538106Y184394D02*
X572312Y218600D01*
X594900Y218600D01*
X538106Y184394D02*
X514106Y184394D01*
D16*
X359040Y175624D03*
D18*
X363601Y180185D01*
X430784Y195072D02*
X533780Y195072D01*
X430784Y195072D02*
X415613Y179901D01*
X363601Y180185D01*
X582708Y244000D02*
X594900Y244000D01*
X582708Y244000D02*
X533780Y195072D01*
D19*
X183280Y38400D02*
X157880Y38400D01*
X51581Y109900D02*
X36000Y109900D01*
X155132Y41148D02*
X157880Y38400D01*
X120333Y41148D02*
X51581Y109900D01*
X120333Y41148D02*
X155132Y41148D01*
X101000Y229000D02*
X40792Y229000D01*
X35000Y234792D01*
D16*
X101000Y229000D03*
X112268Y229108D03*
X122936Y229108D03*
D19*
X112268Y229108D01*
X112160Y229000D01*
X101000Y229000D01*
X114860Y180100D02*
X173976Y180100D01*
X192532Y161544D02*
X192532Y106680D01*
D16*
X192532Y106680D03*
D19*
X192532Y161544D02*
X173976Y180100D01*
X192532Y106680D02*
X209804Y106680D01*
D16*
X209804Y106680D03*
D18*
X374048Y294800D02*
X391700Y294800D01*
X359156Y279908D02*
X359156Y250952D01*
X298704Y190500D01*
X298704Y73152D01*
D16*
X298704Y73152D03*
D18*
X359156Y279908D02*
X374048Y294800D01*
D21*
X358140Y196088D03*
D18*
X367792Y205740D01*
X408432Y205740D02*
X419608Y216916D01*
X419608Y334772D01*
X408432Y345948D01*
X392048Y345948D01*
X391700Y345600D01*
X408432Y205740D02*
X367792Y205740D01*
M02*
