G04 EAGLE Gerber RS-274X export*
G75*
%MOMM*%
%FSLAX34Y34*%
%LPD*%
%INTop Copper*%
%IPPOS*%
%AMOC8*
5,1,8,0,0,1.08239X$1,22.5*%
G01*
%ADD10R,1.000000X1.100000*%
%ADD11R,2.300000X4.300000*%
%ADD12R,2.300000X3.660000*%
%ADD13R,1.200000X0.600000*%
%ADD14R,1.525000X0.650000*%
%ADD15C,1.508000*%
%ADD16R,2.540000X2.540000*%
%ADD17R,0.800000X1.150000*%
%ADD18R,1.250000X1.700000*%
%ADD19R,2.450000X2.350000*%
%ADD20R,2.400000X2.400000*%
%ADD21C,1.524000*%
%ADD22R,1.100000X1.000000*%
%ADD23C,1.676400*%
%ADD24C,1.524000*%
%ADD25R,0.600000X1.200000*%
%ADD26R,1.300000X1.500000*%
%ADD27C,0.609600*%
%ADD28C,0.508000*%
%ADD29C,0.812800*%
%ADD30C,1.016000*%
%ADD31C,0.956400*%
%ADD32C,1.270000*%
%ADD33C,0.406400*%
%ADD34C,0.304800*%
%ADD35C,2.000000*%
%ADD36C,0.950000*%

G36*
X218213Y9172D02*
X218213Y9172D01*
X218264Y9174D01*
X218296Y9192D01*
X218332Y9200D01*
X218371Y9233D01*
X218416Y9257D01*
X218437Y9287D01*
X218465Y9310D01*
X218486Y9357D01*
X218516Y9399D01*
X218524Y9441D01*
X218536Y9469D01*
X218535Y9499D01*
X218543Y9541D01*
X218543Y25948D01*
X218709Y26113D01*
X218749Y26178D01*
X218793Y26240D01*
X218795Y26252D01*
X218800Y26260D01*
X218804Y26298D01*
X218820Y26382D01*
X218820Y38100D01*
X218807Y38158D01*
X218807Y38160D01*
X218806Y38162D01*
X218803Y38174D01*
X218790Y38249D01*
X218783Y38259D01*
X218781Y38269D01*
X218757Y38298D01*
X218709Y38369D01*
X213740Y43338D01*
X213740Y56034D01*
X213723Y56108D01*
X213710Y56183D01*
X213703Y56193D01*
X213701Y56203D01*
X213677Y56231D01*
X213629Y56303D01*
X212391Y57540D01*
X212391Y71120D01*
X212380Y71170D01*
X212378Y71221D01*
X212360Y71253D01*
X212352Y71289D01*
X212319Y71328D01*
X212295Y71373D01*
X212265Y71394D01*
X212242Y71422D01*
X212195Y71443D01*
X212153Y71473D01*
X212111Y71481D01*
X212083Y71493D01*
X212053Y71492D01*
X212011Y71500D01*
X194214Y71500D01*
X188229Y77485D01*
X188164Y77525D01*
X188102Y77569D01*
X188090Y77571D01*
X188082Y77576D01*
X188045Y77580D01*
X187960Y77596D01*
X137668Y77596D01*
X137594Y77579D01*
X137519Y77566D01*
X137509Y77559D01*
X137499Y77557D01*
X137470Y77533D01*
X137399Y77485D01*
X132572Y72658D01*
X132572Y72657D01*
X132570Y72656D01*
X132490Y72535D01*
X132238Y71926D01*
X128974Y68662D01*
X128365Y68410D01*
X128364Y68409D01*
X128362Y68409D01*
X128242Y68328D01*
X127351Y67436D01*
X126090Y67436D01*
X126088Y67436D01*
X126086Y67436D01*
X125944Y67407D01*
X124708Y66895D01*
X105012Y66895D01*
X100746Y68662D01*
X97482Y71926D01*
X95715Y76192D01*
X95715Y76369D01*
X95698Y76443D01*
X95685Y76518D01*
X95678Y76528D01*
X95676Y76538D01*
X95652Y76567D01*
X95604Y76638D01*
X90804Y81438D01*
X90804Y183813D01*
X90793Y183863D01*
X90791Y183914D01*
X90773Y183946D01*
X90765Y183982D01*
X90732Y184021D01*
X90708Y184066D01*
X90678Y184087D01*
X90655Y184115D01*
X90608Y184136D01*
X90566Y184166D01*
X90524Y184174D01*
X90496Y184186D01*
X90466Y184185D01*
X90424Y184193D01*
X90188Y184193D01*
X86937Y185540D01*
X84448Y188029D01*
X83101Y191280D01*
X83101Y194800D01*
X84448Y198051D01*
X86937Y200540D01*
X90188Y201887D01*
X90424Y201887D01*
X90474Y201898D01*
X90525Y201900D01*
X90557Y201918D01*
X90593Y201926D01*
X90632Y201959D01*
X90677Y201983D01*
X90698Y202013D01*
X90726Y202036D01*
X90747Y202083D01*
X90777Y202125D01*
X90785Y202167D01*
X90797Y202195D01*
X90796Y202225D01*
X90804Y202267D01*
X90804Y226324D01*
X90804Y226326D01*
X90804Y226328D01*
X90775Y226470D01*
X90585Y226928D01*
X90585Y231072D01*
X90775Y231530D01*
X90776Y231532D01*
X90777Y231534D01*
X90804Y231676D01*
X90804Y243968D01*
X141642Y243968D01*
X141716Y243985D01*
X141791Y243998D01*
X141801Y244005D01*
X141811Y244007D01*
X141839Y244031D01*
X141911Y244079D01*
X143496Y245665D01*
X172264Y245665D01*
X173849Y244079D01*
X173914Y244039D01*
X173976Y243995D01*
X173988Y243993D01*
X173996Y243988D01*
X174033Y243984D01*
X174118Y243968D01*
X174239Y243968D01*
X174313Y243985D01*
X174387Y243998D01*
X174398Y244005D01*
X174407Y244007D01*
X174436Y244031D01*
X174508Y244079D01*
X176706Y246278D01*
X180972Y248045D01*
X185588Y248045D01*
X189854Y246278D01*
X192052Y244079D01*
X192117Y244039D01*
X192179Y243995D01*
X192191Y243993D01*
X192200Y243988D01*
X192237Y243984D01*
X192321Y243968D01*
X231543Y243968D01*
X231568Y243974D01*
X231593Y243971D01*
X231651Y243993D01*
X231711Y244007D01*
X231731Y244024D01*
X231755Y244033D01*
X231797Y244078D01*
X231845Y244117D01*
X231856Y244141D01*
X231873Y244160D01*
X231891Y244219D01*
X231916Y244276D01*
X231915Y244301D01*
X231922Y244326D01*
X231912Y244387D01*
X231909Y244449D01*
X231897Y244471D01*
X231893Y244497D01*
X231844Y244568D01*
X231827Y244601D01*
X231818Y244607D01*
X231812Y244617D01*
X229002Y247426D01*
X227235Y251692D01*
X227235Y256308D01*
X229002Y260574D01*
X232266Y263838D01*
X236532Y265605D01*
X256228Y265605D01*
X260494Y263838D01*
X263758Y260574D01*
X265525Y256308D01*
X265525Y251692D01*
X263758Y247426D01*
X260948Y244617D01*
X260935Y244595D01*
X260915Y244579D01*
X260890Y244522D01*
X260857Y244470D01*
X260855Y244444D01*
X260844Y244420D01*
X260846Y244359D01*
X260840Y244297D01*
X260850Y244273D01*
X260851Y244247D01*
X260880Y244193D01*
X260902Y244135D01*
X260921Y244118D01*
X260933Y244095D01*
X260984Y244060D01*
X261029Y244018D01*
X261054Y244010D01*
X261075Y243995D01*
X261160Y243979D01*
X261195Y243968D01*
X261205Y243970D01*
X261217Y243968D01*
X263139Y243968D01*
X263213Y243985D01*
X263287Y243998D01*
X263298Y244005D01*
X263307Y244007D01*
X263336Y244031D01*
X263408Y244079D01*
X265606Y246278D01*
X269872Y248045D01*
X274488Y248045D01*
X278754Y246278D01*
X280952Y244079D01*
X281017Y244039D01*
X281079Y243995D01*
X281091Y243993D01*
X281100Y243988D01*
X281137Y243984D01*
X281221Y243968D01*
X288539Y243968D01*
X288613Y243985D01*
X288687Y243998D01*
X288698Y244005D01*
X288707Y244007D01*
X288736Y244031D01*
X288808Y244079D01*
X291006Y246278D01*
X295272Y248045D01*
X299888Y248045D01*
X304154Y246278D01*
X306352Y244079D01*
X306417Y244039D01*
X306479Y243995D01*
X306491Y243993D01*
X306500Y243988D01*
X306537Y243984D01*
X306621Y243968D01*
X308356Y243968D01*
X308406Y243979D01*
X308457Y243981D01*
X308489Y243999D01*
X308525Y244007D01*
X308564Y244040D01*
X308609Y244064D01*
X308630Y244094D01*
X308658Y244117D01*
X308679Y244164D01*
X308709Y244206D01*
X308717Y244248D01*
X308729Y244276D01*
X308728Y244306D01*
X308736Y244348D01*
X308736Y311404D01*
X308725Y311454D01*
X308723Y311505D01*
X308705Y311537D01*
X308697Y311573D01*
X308664Y311612D01*
X308640Y311657D01*
X308610Y311678D01*
X308587Y311706D01*
X308540Y311727D01*
X308498Y311757D01*
X308456Y311765D01*
X308428Y311777D01*
X308398Y311776D01*
X308356Y311784D01*
X264157Y311784D01*
X264120Y311775D01*
X264081Y311777D01*
X264036Y311756D01*
X263988Y311745D01*
X263959Y311720D01*
X263924Y311704D01*
X263893Y311666D01*
X263855Y311635D01*
X263839Y311599D01*
X263815Y311570D01*
X263804Y311522D01*
X263784Y311476D01*
X263785Y311438D01*
X263777Y311400D01*
X263789Y311341D01*
X263790Y311303D01*
X263800Y311285D01*
X263806Y311258D01*
X265525Y307108D01*
X265525Y302492D01*
X263758Y298226D01*
X260494Y294962D01*
X256228Y293195D01*
X236532Y293195D01*
X232266Y294962D01*
X229002Y298226D01*
X227235Y302492D01*
X227235Y307108D01*
X228954Y311258D01*
X228961Y311296D01*
X228976Y311332D01*
X228974Y311381D01*
X228982Y311429D01*
X228971Y311466D01*
X228970Y311505D01*
X228946Y311548D01*
X228932Y311595D01*
X228905Y311623D01*
X228887Y311657D01*
X228847Y311685D01*
X228813Y311721D01*
X228777Y311734D01*
X228745Y311757D01*
X228686Y311768D01*
X228650Y311781D01*
X228630Y311779D01*
X228603Y311784D01*
X145796Y311784D01*
X145746Y311773D01*
X145695Y311771D01*
X145663Y311753D01*
X145627Y311745D01*
X145588Y311712D01*
X145543Y311688D01*
X145522Y311658D01*
X145494Y311635D01*
X145473Y311588D01*
X145443Y311546D01*
X145435Y311504D01*
X145423Y311476D01*
X145424Y311446D01*
X145416Y311404D01*
X145416Y263810D01*
X145131Y263524D01*
X57912Y263524D01*
X57838Y263507D01*
X57763Y263494D01*
X57753Y263487D01*
X57743Y263485D01*
X57714Y263461D01*
X57643Y263413D01*
X56627Y262397D01*
X56587Y262332D01*
X56543Y262270D01*
X56541Y262258D01*
X56536Y262250D01*
X56532Y262213D01*
X56516Y262128D01*
X56516Y189407D01*
X56516Y189405D01*
X56516Y189403D01*
X56532Y189326D01*
X56533Y189299D01*
X56540Y189285D01*
X56545Y189261D01*
X56829Y188576D01*
X56829Y183624D01*
X56545Y182939D01*
X56544Y182937D01*
X56543Y182935D01*
X56516Y182793D01*
X56516Y167004D01*
X10541Y167004D01*
X10491Y166993D01*
X10440Y166991D01*
X10408Y166973D01*
X10372Y166965D01*
X10333Y166932D01*
X10288Y166908D01*
X10267Y166878D01*
X10239Y166855D01*
X10218Y166808D01*
X10188Y166766D01*
X10180Y166724D01*
X10168Y166696D01*
X10169Y166666D01*
X10161Y166624D01*
X10161Y131064D01*
X10172Y131014D01*
X10174Y130963D01*
X10192Y130931D01*
X10200Y130895D01*
X10233Y130856D01*
X10257Y130811D01*
X10287Y130790D01*
X10310Y130762D01*
X10357Y130741D01*
X10399Y130711D01*
X10441Y130703D01*
X10469Y130691D01*
X10499Y130692D01*
X10541Y130684D01*
X57024Y130684D01*
X57024Y83820D01*
X57041Y83746D01*
X57054Y83671D01*
X57061Y83661D01*
X57063Y83651D01*
X57087Y83622D01*
X57135Y83551D01*
X60815Y79871D01*
X60844Y79853D01*
X60879Y79820D01*
X70273Y73783D01*
X78605Y64167D01*
X80329Y60391D01*
X80346Y60369D01*
X80406Y60280D01*
X86488Y54199D01*
X86488Y21336D01*
X86505Y21262D01*
X86508Y21246D01*
X86509Y21228D01*
X86512Y21222D01*
X86518Y21187D01*
X86525Y21177D01*
X86527Y21167D01*
X86551Y21138D01*
X86583Y21090D01*
X86591Y21076D01*
X86595Y21073D01*
X86599Y21067D01*
X98394Y9272D01*
X98459Y9232D01*
X98521Y9188D01*
X98533Y9186D01*
X98541Y9181D01*
X98578Y9177D01*
X98663Y9161D01*
X218163Y9161D01*
X218213Y9172D01*
G37*
G36*
X214426Y377075D02*
X214426Y377075D01*
X214477Y377077D01*
X214509Y377095D01*
X214545Y377103D01*
X214584Y377136D01*
X214629Y377160D01*
X214650Y377190D01*
X214678Y377213D01*
X214699Y377260D01*
X214729Y377302D01*
X214737Y377344D01*
X214749Y377372D01*
X214748Y377402D01*
X214756Y377444D01*
X214756Y383540D01*
X214745Y383590D01*
X214743Y383641D01*
X214725Y383673D01*
X214717Y383709D01*
X214684Y383748D01*
X214660Y383793D01*
X214630Y383814D01*
X214607Y383842D01*
X214560Y383863D01*
X214518Y383893D01*
X214476Y383901D01*
X214448Y383913D01*
X214418Y383912D01*
X214376Y383920D01*
X205898Y383920D01*
X185800Y404018D01*
X185800Y432308D01*
X185783Y432382D01*
X185770Y432457D01*
X185763Y432467D01*
X185761Y432477D01*
X185737Y432506D01*
X185689Y432577D01*
X156844Y461422D01*
X156844Y487680D01*
X156833Y487730D01*
X156831Y487781D01*
X156813Y487813D01*
X156805Y487849D01*
X156772Y487888D01*
X156748Y487933D01*
X156718Y487954D01*
X156695Y487982D01*
X156648Y488003D01*
X156606Y488033D01*
X156564Y488041D01*
X156536Y488053D01*
X156506Y488052D01*
X156464Y488060D01*
X134620Y488060D01*
X134570Y488049D01*
X134519Y488047D01*
X134487Y488029D01*
X134451Y488021D01*
X134412Y487988D01*
X134367Y487964D01*
X134346Y487934D01*
X134318Y487911D01*
X134297Y487864D01*
X134267Y487822D01*
X134259Y487780D01*
X134247Y487752D01*
X134248Y487722D01*
X134240Y487680D01*
X134240Y377444D01*
X134251Y377394D01*
X134253Y377343D01*
X134271Y377311D01*
X134279Y377275D01*
X134312Y377236D01*
X134336Y377191D01*
X134366Y377170D01*
X134389Y377142D01*
X134436Y377121D01*
X134478Y377091D01*
X134520Y377083D01*
X134548Y377071D01*
X134578Y377072D01*
X134620Y377064D01*
X214376Y377064D01*
X214426Y377075D01*
G37*
G36*
X251026Y376573D02*
X251026Y376573D01*
X251101Y376586D01*
X251111Y376593D01*
X251121Y376595D01*
X251150Y376619D01*
X251221Y376667D01*
X254666Y380112D01*
X266700Y380112D01*
X266750Y380123D01*
X266801Y380125D01*
X266833Y380143D01*
X266869Y380151D01*
X266908Y380184D01*
X266953Y380208D01*
X266974Y380238D01*
X267002Y380261D01*
X267023Y380308D01*
X267053Y380350D01*
X267061Y380392D01*
X267073Y380420D01*
X267072Y380450D01*
X267080Y380492D01*
X267080Y405892D01*
X267069Y405942D01*
X267067Y405993D01*
X267049Y406025D01*
X267041Y406061D01*
X267008Y406100D01*
X266984Y406145D01*
X266954Y406166D01*
X266931Y406194D01*
X266884Y406215D01*
X266842Y406245D01*
X266800Y406253D01*
X266772Y406265D01*
X266742Y406264D01*
X266700Y406272D01*
X235362Y406272D01*
X220344Y421290D01*
X220344Y487680D01*
X220333Y487730D01*
X220331Y487781D01*
X220313Y487813D01*
X220305Y487849D01*
X220272Y487888D01*
X220248Y487933D01*
X220218Y487954D01*
X220195Y487982D01*
X220148Y488003D01*
X220106Y488033D01*
X220064Y488041D01*
X220036Y488053D01*
X220006Y488052D01*
X219964Y488060D01*
X189992Y488060D01*
X189942Y488049D01*
X189891Y488047D01*
X189859Y488029D01*
X189823Y488021D01*
X189784Y487988D01*
X189739Y487964D01*
X189718Y487934D01*
X189690Y487911D01*
X189669Y487864D01*
X189639Y487822D01*
X189631Y487780D01*
X189619Y487752D01*
X189620Y487722D01*
X189612Y487680D01*
X189612Y410464D01*
X189629Y410390D01*
X189642Y410315D01*
X189649Y410305D01*
X189651Y410295D01*
X189675Y410266D01*
X189723Y410195D01*
X213599Y386319D01*
X213664Y386279D01*
X213726Y386235D01*
X213738Y386233D01*
X213746Y386228D01*
X213783Y386224D01*
X213868Y386208D01*
X226411Y386208D01*
X227204Y385415D01*
X227204Y376936D01*
X227215Y376886D01*
X227217Y376835D01*
X227235Y376803D01*
X227243Y376767D01*
X227276Y376728D01*
X227300Y376683D01*
X227330Y376662D01*
X227353Y376634D01*
X227400Y376613D01*
X227442Y376583D01*
X227484Y376575D01*
X227512Y376563D01*
X227542Y376564D01*
X227584Y376556D01*
X250952Y376556D01*
X251026Y376573D01*
G37*
G36*
X138226Y268363D02*
X138226Y268363D01*
X138277Y268365D01*
X138309Y268383D01*
X138345Y268391D01*
X138384Y268424D01*
X138429Y268448D01*
X138450Y268478D01*
X138478Y268501D01*
X138499Y268548D01*
X138529Y268590D01*
X138537Y268632D01*
X138549Y268660D01*
X138548Y268690D01*
X138556Y268732D01*
X138556Y297688D01*
X138545Y297738D01*
X138543Y297789D01*
X138525Y297821D01*
X138517Y297857D01*
X138484Y297896D01*
X138460Y297941D01*
X138430Y297962D01*
X138407Y297990D01*
X138360Y298011D01*
X138318Y298041D01*
X138276Y298049D01*
X138248Y298061D01*
X138218Y298060D01*
X138176Y298068D01*
X122078Y298068D01*
X109997Y310149D01*
X109932Y310189D01*
X109870Y310233D01*
X109858Y310235D01*
X109850Y310240D01*
X109813Y310244D01*
X109728Y310260D01*
X21336Y310260D01*
X21286Y310249D01*
X21235Y310247D01*
X21203Y310229D01*
X21167Y310221D01*
X21128Y310188D01*
X21083Y310164D01*
X21062Y310134D01*
X21034Y310111D01*
X21013Y310064D01*
X20983Y310022D01*
X20975Y309980D01*
X20963Y309952D01*
X20964Y309922D01*
X20956Y309880D01*
X20956Y281432D01*
X20967Y281382D01*
X20969Y281331D01*
X20987Y281299D01*
X20995Y281263D01*
X21028Y281224D01*
X21052Y281179D01*
X21082Y281158D01*
X21105Y281130D01*
X21152Y281109D01*
X21194Y281079D01*
X21236Y281071D01*
X21264Y281059D01*
X21294Y281060D01*
X21336Y281052D01*
X89759Y281052D01*
X102347Y268463D01*
X102412Y268423D01*
X102474Y268379D01*
X102486Y268377D01*
X102494Y268372D01*
X102531Y268368D01*
X102616Y268352D01*
X138176Y268352D01*
X138226Y268363D01*
G37*
G36*
X262686Y80911D02*
X262686Y80911D01*
X262737Y80913D01*
X262769Y80931D01*
X262805Y80939D01*
X262844Y80972D01*
X262889Y80996D01*
X262910Y81026D01*
X262938Y81049D01*
X262959Y81096D01*
X262989Y81138D01*
X262997Y81180D01*
X263009Y81208D01*
X263008Y81238D01*
X263016Y81280D01*
X263016Y114808D01*
X263005Y114858D01*
X263003Y114909D01*
X262985Y114941D01*
X262977Y114977D01*
X262944Y115016D01*
X262920Y115061D01*
X262890Y115082D01*
X262867Y115110D01*
X262820Y115131D01*
X262778Y115161D01*
X262736Y115169D01*
X262708Y115181D01*
X262678Y115180D01*
X262636Y115188D01*
X177800Y115188D01*
X177750Y115177D01*
X177699Y115175D01*
X177667Y115157D01*
X177631Y115149D01*
X177592Y115116D01*
X177547Y115092D01*
X177526Y115062D01*
X177498Y115039D01*
X177477Y114992D01*
X177447Y114950D01*
X177439Y114908D01*
X177427Y114880D01*
X177428Y114850D01*
X177420Y114808D01*
X177420Y98044D01*
X177431Y97994D01*
X177433Y97943D01*
X177451Y97911D01*
X177459Y97875D01*
X177492Y97836D01*
X177516Y97791D01*
X177546Y97770D01*
X177569Y97742D01*
X177616Y97721D01*
X177658Y97691D01*
X177700Y97683D01*
X177728Y97671D01*
X177758Y97672D01*
X177800Y97664D01*
X189327Y97664D01*
X202931Y84059D01*
X202996Y84019D01*
X203058Y83975D01*
X203070Y83973D01*
X203078Y83968D01*
X203115Y83964D01*
X203200Y83948D01*
X212852Y83948D01*
X212902Y83959D01*
X212953Y83961D01*
X212985Y83979D01*
X213021Y83987D01*
X213060Y84020D01*
X213105Y84044D01*
X213126Y84074D01*
X213154Y84097D01*
X213175Y84144D01*
X213205Y84186D01*
X213213Y84228D01*
X213225Y84256D01*
X213224Y84286D01*
X213232Y84328D01*
X213232Y100712D01*
X235332Y100712D01*
X235332Y92456D01*
X235349Y92382D01*
X235362Y92307D01*
X235369Y92297D01*
X235371Y92287D01*
X235395Y92258D01*
X235443Y92187D01*
X246619Y81011D01*
X246684Y80971D01*
X246746Y80927D01*
X246758Y80925D01*
X246766Y80920D01*
X246803Y80916D01*
X246888Y80900D01*
X262636Y80900D01*
X262686Y80911D01*
G37*
%LPC*%
G36*
X180972Y19255D02*
X180972Y19255D01*
X176706Y21022D01*
X174447Y23281D01*
X174404Y23308D01*
X174367Y23343D01*
X174331Y23353D01*
X174300Y23373D01*
X174249Y23377D01*
X174200Y23392D01*
X174164Y23386D01*
X174128Y23389D01*
X174080Y23371D01*
X174030Y23362D01*
X173994Y23338D01*
X173966Y23327D01*
X173945Y23305D01*
X173910Y23281D01*
X172264Y21635D01*
X143496Y21635D01*
X141115Y24016D01*
X141115Y52784D01*
X143496Y55165D01*
X172264Y55165D01*
X173910Y53519D01*
X173953Y53492D01*
X173990Y53457D01*
X174026Y53447D01*
X174057Y53427D01*
X174107Y53423D01*
X174156Y53408D01*
X174193Y53414D01*
X174229Y53411D01*
X174277Y53429D01*
X174327Y53438D01*
X174363Y53462D01*
X174391Y53473D01*
X174412Y53495D01*
X174447Y53519D01*
X176706Y55778D01*
X180972Y57545D01*
X185588Y57545D01*
X189854Y55778D01*
X193118Y52514D01*
X194885Y48248D01*
X194885Y28552D01*
X193118Y24286D01*
X189854Y21022D01*
X185588Y19255D01*
X180972Y19255D01*
G37*
%LPD*%
%LPC*%
G36*
X236532Y267795D02*
X236532Y267795D01*
X232266Y269562D01*
X229002Y272826D01*
X227235Y277092D01*
X227235Y281708D01*
X229002Y285974D01*
X232266Y289238D01*
X236532Y291005D01*
X256228Y291005D01*
X260494Y289238D01*
X263758Y285974D01*
X265525Y281708D01*
X265525Y277092D01*
X263758Y272826D01*
X260494Y269562D01*
X256228Y267795D01*
X236532Y267795D01*
G37*
%LPD*%
D10*
X175000Y363100D03*
X175000Y380100D03*
X262000Y386000D03*
X262000Y369000D03*
X284000Y386100D03*
X284000Y369100D03*
D11*
X494900Y397658D03*
D12*
X494900Y233245D03*
D13*
X208400Y380200D03*
X208400Y370700D03*
X208400Y361200D03*
X233400Y361200D03*
X233400Y370700D03*
X233400Y380200D03*
D14*
X518980Y125058D03*
X518980Y137758D03*
X518980Y150458D03*
X518980Y163158D03*
X464740Y163158D03*
X464740Y150458D03*
X464740Y137758D03*
X464740Y125058D03*
D10*
X554000Y92576D03*
X554000Y109576D03*
X535000Y92776D03*
X535000Y109776D03*
X554000Y149300D03*
X554000Y132300D03*
X126000Y362900D03*
X126000Y379900D03*
X150000Y379900D03*
X150000Y362900D03*
D15*
X384160Y447200D02*
X399240Y447200D01*
X399240Y421800D02*
X384160Y421800D01*
X384160Y396400D02*
X399240Y396400D01*
X399240Y371000D02*
X384160Y371000D01*
X384160Y345600D02*
X399240Y345600D01*
X399240Y320200D02*
X384160Y320200D01*
X384160Y294800D02*
X399240Y294800D01*
X399240Y269400D02*
X384160Y269400D01*
X384160Y244000D02*
X399240Y244000D01*
X399240Y218600D02*
X384160Y218600D01*
X384160Y193200D02*
X399240Y193200D01*
X399240Y167800D02*
X384160Y167800D01*
X384160Y142400D02*
X399240Y142400D01*
X399240Y117000D02*
X384160Y117000D01*
X384160Y91600D02*
X399240Y91600D01*
X399240Y66200D02*
X384160Y66200D01*
X587360Y66200D02*
X602440Y66200D01*
X602440Y91600D02*
X587360Y91600D01*
X587360Y117000D02*
X602440Y117000D01*
X602440Y142400D02*
X587360Y142400D01*
X587360Y167800D02*
X602440Y167800D01*
X602440Y193200D02*
X587360Y193200D01*
X587360Y218600D02*
X602440Y218600D01*
X602440Y244000D02*
X587360Y244000D01*
X587360Y269400D02*
X602440Y269400D01*
X602440Y294800D02*
X587360Y294800D01*
X587360Y320200D02*
X602440Y320200D01*
X602440Y345600D02*
X587360Y345600D01*
X253920Y330200D02*
X238840Y330200D01*
X238840Y304800D02*
X253920Y304800D01*
X253920Y279400D02*
X238840Y279400D01*
X238840Y254000D02*
X253920Y254000D01*
X253920Y228600D02*
X238840Y228600D01*
X665560Y271780D02*
X680640Y271780D01*
X680640Y246380D02*
X665560Y246380D01*
X665560Y220980D02*
X680640Y220980D01*
X680640Y195580D02*
X665560Y195580D01*
X665560Y170180D02*
X680640Y170180D01*
X680640Y144780D02*
X665560Y144780D01*
X42440Y415056D02*
X27360Y415056D01*
X27360Y389656D02*
X42440Y389656D01*
X42440Y364256D02*
X27360Y364256D01*
X107320Y205500D02*
X122400Y205500D01*
X122400Y180100D02*
X107320Y180100D01*
X107320Y154700D02*
X122400Y154700D01*
X122400Y129300D02*
X107320Y129300D01*
X107320Y103900D02*
X122400Y103900D01*
X122400Y78500D02*
X107320Y78500D01*
X323220Y180100D02*
X338300Y180100D01*
X338300Y154700D02*
X323220Y154700D01*
X323220Y129300D02*
X338300Y129300D01*
X338300Y103900D02*
X323220Y103900D01*
X323220Y78500D02*
X338300Y78500D01*
X338300Y53100D02*
X323220Y53100D01*
X297580Y221360D02*
X297580Y236440D01*
X272180Y236440D02*
X272180Y221360D01*
X183280Y221360D02*
X183280Y236440D01*
X183280Y45940D02*
X183280Y30860D01*
X272180Y30860D02*
X272180Y45940D01*
X297580Y45940D02*
X297580Y30860D01*
D16*
X157880Y38400D03*
X157880Y228900D03*
D10*
X305000Y386500D03*
X305000Y369500D03*
D17*
X211000Y291500D03*
X211000Y326500D03*
D18*
X178000Y299500D03*
X178000Y326500D03*
D10*
X152000Y309500D03*
X152000Y326500D03*
X129000Y309500D03*
X129000Y326500D03*
D19*
X295000Y280000D03*
X295000Y342000D03*
D20*
X595000Y432000D03*
X595000Y388000D03*
D21*
X680636Y372892D02*
X695876Y372892D01*
X695876Y347492D02*
X680636Y347492D01*
X680636Y322092D02*
X695876Y322092D01*
D16*
X339000Y281000D03*
X339000Y421000D03*
X119000Y281000D03*
X119000Y421000D03*
D15*
X42540Y324224D02*
X27460Y324224D01*
X27460Y298824D02*
X42540Y298824D01*
X140700Y469460D02*
X140700Y484540D01*
X115300Y484540D02*
X115300Y469460D01*
X197700Y469460D02*
X197700Y484540D01*
X172300Y484540D02*
X172300Y469460D01*
X42540Y260192D02*
X27460Y260192D01*
X27460Y234792D02*
X42540Y234792D01*
D22*
X464152Y191000D03*
X481152Y191000D03*
D23*
X44382Y109900D02*
X27618Y109900D01*
X27618Y148000D02*
X44382Y148000D01*
X44382Y186100D02*
X27618Y186100D01*
D15*
X673572Y96300D02*
X688652Y96300D01*
X688652Y121700D02*
X673572Y121700D01*
D24*
X480568Y26924D03*
X455168Y26924D03*
X429768Y26924D03*
X505968Y26924D03*
X531368Y26924D03*
X556768Y26924D03*
D25*
X209956Y65224D03*
X219456Y65224D03*
X228956Y65224D03*
X228956Y90224D03*
X219456Y90224D03*
X209956Y90224D03*
D10*
X182372Y87748D03*
X182372Y70748D03*
X257048Y86732D03*
X257048Y69732D03*
D26*
X212108Y16764D03*
X229108Y16764D03*
X246108Y16764D03*
D27*
X464152Y163746D02*
X464740Y163158D01*
X464152Y163746D02*
X464152Y191000D01*
X673100Y129712D02*
X681112Y121700D01*
X673100Y129712D02*
X673100Y144780D01*
D28*
X660220Y144780D01*
X647000Y158000D01*
X647000Y219000D01*
X648980Y220980D02*
X673100Y220980D01*
X648980Y220980D02*
X647000Y219000D01*
X657892Y372892D02*
X688256Y372892D01*
X657892Y372892D02*
X647000Y362000D01*
X647000Y219000D01*
D29*
X152000Y326500D02*
X129000Y326500D01*
X152000Y326500D02*
X178000Y326500D01*
X211000Y326500D01*
X126000Y379900D02*
X119000Y386900D01*
X119000Y421000D01*
D27*
X175000Y363100D02*
X182100Y363100D01*
X189700Y370700D02*
X208400Y370700D01*
X189700Y370700D02*
X182100Y363100D01*
D28*
X208400Y370700D02*
X217300Y370700D01*
X221000Y367000D02*
X221000Y356000D01*
X228000Y349000D01*
X262000Y355000D02*
X262000Y369000D01*
X221000Y367000D02*
X217300Y370700D01*
X228000Y349000D02*
X256000Y349000D01*
X262000Y355000D01*
D29*
X262000Y369000D02*
X283900Y369000D01*
D27*
X284000Y369100D01*
X304600Y369100D02*
X305000Y369500D01*
D29*
X304600Y369100D02*
X284000Y369100D01*
D27*
X82256Y364256D02*
X34900Y364256D01*
X78700Y360700D02*
X82256Y364256D01*
X98000Y380000D01*
X125900Y380000D01*
X126000Y379900D01*
D28*
X162900Y351000D02*
X175000Y363100D01*
X162900Y351000D02*
X87000Y351000D01*
X78700Y359300D01*
X78700Y360700D01*
D30*
X128756Y326256D02*
X129000Y326500D01*
X128756Y326256D02*
X37032Y326256D01*
X35000Y324224D01*
D27*
X458828Y207256D02*
X463908Y202176D01*
X463908Y191244D01*
X464152Y191000D01*
D31*
X458828Y207256D03*
D30*
X494900Y397658D02*
X533342Y397658D01*
X542000Y389000D01*
D31*
X542000Y389000D03*
D30*
X494900Y397658D02*
X458070Y397658D01*
X452460Y392048D01*
D31*
X452460Y392048D03*
D30*
X339000Y421000D02*
X339000Y451000D01*
X320000Y470000D01*
D31*
X233000Y470000D03*
D30*
X320000Y470000D01*
D29*
X295000Y359500D02*
X295000Y342000D01*
X295000Y359500D02*
X305000Y369500D01*
D32*
X115300Y424700D02*
X115300Y477000D01*
X115300Y424700D02*
X119000Y421000D01*
D31*
X466852Y397764D03*
X530352Y397764D03*
D27*
X295000Y342000D02*
X270372Y342000D01*
X269748Y341376D01*
D31*
X269748Y341376D03*
D28*
X272180Y38400D02*
X263352Y38400D01*
X257048Y44704D01*
X272180Y38400D02*
X297580Y38400D01*
X190636Y87748D02*
X182372Y87748D01*
X190636Y87748D02*
X200152Y78232D01*
X219456Y78232D01*
X239776Y78232D01*
X248276Y69732D01*
X219456Y65224D02*
X219456Y78232D01*
X248276Y69732D02*
X257048Y69732D01*
X257048Y44704D01*
D27*
X518980Y137758D02*
X539242Y137758D01*
X545000Y132000D01*
X553700Y132000D01*
X554000Y132300D01*
X554000Y109576D01*
X553800Y109776D01*
X535000Y109776D01*
X518980Y137758D02*
X492242Y137758D01*
X486000Y144000D01*
X486000Y191000D01*
X498000Y191000D02*
X505664Y191000D01*
X527156Y212492D01*
X527156Y286332D01*
X391700Y421800D02*
X371200Y421800D01*
X362000Y431000D02*
X362000Y482396D01*
X346604Y497792D01*
X103000Y497792D01*
X89000Y483792D01*
X89000Y426000D02*
X78064Y415064D01*
X34908Y415064D02*
X34900Y415056D01*
X34908Y415064D02*
X78064Y415064D01*
X362000Y431000D02*
X371200Y421800D01*
X89000Y426000D02*
X89000Y483792D01*
X481152Y191000D02*
X486000Y191000D01*
D33*
X530352Y39116D02*
X530352Y27940D01*
X531368Y26924D01*
D28*
X498000Y191000D02*
X481152Y191000D01*
D33*
X440944Y230124D02*
X440944Y128524D01*
X530352Y39116D01*
D27*
X440944Y230124D02*
X440944Y311912D01*
X440944Y408432D01*
X427576Y421800D01*
X440944Y311912D02*
X501576Y311912D01*
X527156Y286332D01*
X427576Y421800D02*
X391700Y421800D01*
X464740Y137758D02*
X473814Y137758D01*
X482636Y128936D01*
X482636Y121700D02*
X510336Y94000D01*
X533776Y94000D01*
X535000Y92776D01*
X482636Y121700D02*
X482636Y128936D01*
X535000Y92776D02*
X535000Y85000D01*
X553800Y66200D02*
X594900Y66200D01*
X553800Y66200D02*
X535000Y85000D01*
X464740Y121072D02*
X464740Y125058D01*
X607000Y51000D02*
X617000Y61000D01*
X617000Y84508D01*
X608508Y93000D01*
X596300Y93000D01*
X594900Y91600D01*
X504812Y81000D02*
X464740Y121072D01*
X504812Y81000D02*
X520000Y81000D01*
X550000Y51000D01*
X607000Y51000D01*
X594900Y91600D02*
X554976Y91600D01*
X554000Y92576D01*
D31*
X652000Y109000D03*
D28*
X695112Y109000D01*
X701144Y115032D02*
X701144Y306856D01*
X687082Y320918D01*
X688256Y322092D01*
X701144Y115032D02*
X695112Y109000D01*
D27*
X464740Y150458D02*
X454894Y150458D01*
X449416Y155936D01*
X449416Y217844D01*
X457860Y226288D01*
X495000Y226288D02*
X495000Y233145D01*
X494900Y233245D01*
X495000Y226288D02*
X457860Y226288D01*
X552842Y150458D02*
X554000Y149300D01*
X552842Y150458D02*
X518980Y150458D01*
X554000Y149300D02*
X567700Y149300D01*
X575000Y142000D01*
X594500Y142000D01*
X594900Y142400D01*
X208300Y380100D02*
X175000Y380100D01*
X208300Y380100D02*
X208400Y380200D01*
D32*
X150200Y380100D02*
X150200Y429800D01*
X140700Y439300D01*
D30*
X150200Y380100D02*
X150000Y379900D01*
X150200Y380100D02*
X175000Y380100D01*
D32*
X140700Y439300D02*
X140700Y477000D01*
D27*
X150000Y362900D02*
X126000Y362900D01*
X109100Y362900D01*
X109000Y363000D01*
D31*
X109000Y363000D03*
X91948Y193040D03*
D28*
X159004Y162560D02*
X287528Y162560D01*
X159004Y162560D02*
X128524Y193040D01*
X91948Y193040D01*
X335788Y210820D02*
X371348Y210820D01*
X379128Y218600D01*
X391700Y218600D01*
X335788Y210820D02*
X287528Y162560D01*
D27*
X391700Y244000D02*
X411000Y244000D01*
X421000Y254000D01*
X421000Y376000D01*
X413508Y383492D01*
D28*
X369508Y383492D01*
X369000Y384000D01*
D27*
X314500Y384000D01*
X313400Y385100D02*
X306400Y385100D01*
X305000Y386500D01*
X304600Y386100D02*
X284000Y386100D01*
X304600Y386100D02*
X305000Y386500D01*
X313400Y385100D02*
X314500Y384000D01*
D31*
X270000Y420888D03*
D27*
X305000Y406312D02*
X305000Y386500D01*
X290424Y420888D02*
X270000Y420888D01*
X290424Y420888D02*
X305000Y406312D01*
X594900Y117000D02*
X604000Y117000D01*
X626000Y55608D02*
X583107Y12715D01*
X183000Y342000D02*
X25000Y342000D01*
X604000Y117000D02*
X626000Y95000D01*
X626000Y55608D01*
X583107Y12715D02*
X404368Y12700D01*
X368300Y48768D01*
X368300Y73896D01*
X350756Y91440D01*
X312420Y91440D01*
X286512Y117348D01*
X208400Y361200D02*
X202200Y361200D01*
X183000Y342000D01*
D28*
X281940Y121920D02*
X286512Y117348D01*
X281940Y121920D02*
X173228Y121920D01*
D31*
X173228Y121920D03*
X14958Y201676D03*
D28*
X14958Y331958D02*
X25000Y342000D01*
X14958Y331958D02*
X14958Y201676D01*
D27*
X211000Y291500D02*
X211500Y292000D01*
X283000Y292000D01*
D29*
X295000Y280000D01*
X152000Y309500D02*
X129000Y309500D01*
X152000Y309500D02*
X168000Y309500D01*
X178000Y299500D01*
X203000Y299500D01*
X211000Y291500D01*
D32*
X59608Y148000D02*
X36000Y148000D01*
X69596Y157988D02*
X69596Y234188D01*
X88392Y252984D01*
X178000Y264868D02*
X178000Y299500D01*
X69596Y157988D02*
X59608Y148000D01*
X88392Y252984D02*
X166116Y252984D01*
X178000Y264868D01*
X295000Y280000D02*
X295000Y288396D01*
X332740Y326136D02*
X332740Y368808D01*
D31*
X332740Y368808D03*
X595376Y459740D03*
D32*
X595376Y432376D01*
X595000Y432000D01*
X332740Y326136D02*
X295000Y288396D01*
D27*
X209956Y65224D02*
X209956Y18916D01*
X212108Y16764D01*
X209956Y65224D02*
X187896Y65224D01*
X182372Y70748D01*
D30*
X56724Y148000D02*
X36000Y148000D01*
D32*
X69596Y135128D02*
X69596Y86868D01*
X98552Y57912D01*
X146440Y70748D02*
X182372Y70748D01*
X69596Y135128D02*
X56724Y148000D01*
X98552Y57912D02*
X133604Y57912D01*
X146440Y70748D01*
D27*
X281700Y266700D02*
X295000Y280000D01*
X179832Y266700D02*
X178000Y264868D01*
X179832Y266700D02*
X281700Y266700D01*
D31*
X356008Y142400D03*
D28*
X140660Y142400D02*
X127560Y129300D01*
X114860Y129300D01*
X140660Y142400D02*
X356008Y142400D01*
D31*
X367516Y155496D03*
D28*
X367248Y155228D01*
X367248Y126964D01*
X356616Y116332D01*
X313436Y116332D01*
X297688Y132080D01*
X151384Y132080D01*
X123204Y103900D02*
X114860Y103900D01*
X123204Y103900D02*
X151384Y132080D01*
D34*
X359040Y175624D02*
X359788Y174876D01*
D28*
X352044Y167132D01*
X311404Y167132D01*
X296940Y152668D02*
X116892Y152668D01*
X114860Y154700D01*
X296940Y152668D02*
X311404Y167132D01*
D31*
X359040Y175624D03*
D32*
X595000Y345700D02*
X595000Y388000D01*
X595000Y345700D02*
X594900Y345600D01*
X101176Y298824D02*
X35000Y298824D01*
X101176Y298824D02*
X119000Y281000D01*
D27*
X233400Y380200D02*
X248200Y380200D01*
X254000Y386000D01*
X262000Y386000D01*
X233400Y380200D02*
X233400Y393600D01*
D32*
X197700Y414300D02*
X197700Y477000D01*
X218400Y393600D02*
X233400Y393600D01*
X218400Y393600D02*
X197700Y414300D01*
D35*
X36000Y233792D02*
X36000Y186100D01*
D32*
X36000Y233792D02*
X35000Y234792D01*
X336000Y278000D02*
X339000Y281000D01*
X336000Y278000D02*
X336000Y232080D01*
X303540Y199620D01*
X150380Y199620D01*
D30*
X122000Y228000D01*
D32*
X122000Y229000D01*
D31*
X101000Y229000D03*
D32*
X122000Y229000D01*
D31*
X112268Y229108D03*
X122936Y229108D03*
D27*
X594900Y167800D02*
X612200Y167800D01*
X626000Y117000D02*
X647000Y96000D01*
X680812Y96000D01*
X681112Y96300D01*
X626000Y154000D02*
X612200Y167800D01*
X626000Y154000D02*
X626000Y117000D01*
D33*
X403700Y142400D02*
X391700Y142400D01*
X403700Y142400D02*
X410464Y135636D01*
X429768Y73152D02*
X429768Y26924D01*
X429768Y73152D02*
X410464Y92456D01*
X410464Y135636D01*
X418084Y148844D02*
X418084Y103124D01*
X456692Y64516D01*
X456692Y28448D01*
X455168Y26924D01*
X418084Y148844D02*
X399128Y167800D01*
X391700Y167800D01*
X425196Y159704D02*
X425196Y114808D01*
X480568Y59436D01*
X480568Y26924D01*
X425196Y159704D02*
X391700Y193200D01*
X391700Y269400D02*
X377096Y269400D01*
X369316Y261620D01*
X369316Y239268D01*
X377444Y231140D01*
X411480Y231140D01*
X433324Y209296D01*
X505968Y49276D02*
X505968Y26924D01*
X433324Y121920D02*
X433324Y209296D01*
X433324Y121920D02*
X505968Y49276D01*
D31*
X192532Y106680D03*
D29*
X205232Y106680D01*
D27*
X209956Y101956D02*
X209956Y90224D01*
D29*
X209956Y101956D02*
X205232Y106680D01*
X257048Y99568D02*
X257048Y86732D01*
X249936Y106680D02*
X209804Y106680D01*
X249936Y106680D02*
X257048Y99568D01*
D31*
X209804Y106680D03*
D27*
X228956Y65224D02*
X228956Y16916D01*
X229108Y16764D01*
D31*
X298704Y73152D03*
D28*
X298704Y68072D01*
X310388Y56388D01*
X305816Y16764D02*
X246108Y16764D01*
X305816Y16764D02*
X310388Y21336D01*
X310388Y56388D01*
X330760Y180100D02*
X346748Y196088D01*
X358140Y196088D01*
D36*
X358140Y196088D03*
M02*
