G04 EAGLE Gerber RS-274X export*
G75*
%MOMM*%
%FSLAX34Y34*%
%LPD*%
%INSolderpaste Top*%
%IPPOS*%
%AMOC8*
5,1,8,0,0,1.08239X$1,22.5*%
G01*
%ADD10R,1.000000X1.100000*%
%ADD11R,2.300000X4.300000*%
%ADD12R,2.300000X3.660000*%
%ADD13R,1.200000X0.600000*%
%ADD14R,1.525000X0.650000*%
%ADD15R,0.800000X1.150000*%
%ADD16R,1.250000X1.700000*%
%ADD17R,2.450000X2.350000*%
%ADD18R,2.400000X2.400000*%
%ADD19R,1.100000X1.000000*%
%ADD20R,0.600000X1.200000*%
%ADD21R,1.300000X1.500000*%


D10*
X175000Y363100D03*
X175000Y380100D03*
X262000Y386000D03*
X262000Y369000D03*
X284000Y386100D03*
X284000Y369100D03*
D11*
X494900Y397658D03*
D12*
X494900Y233245D03*
D13*
X208400Y380200D03*
X208400Y370700D03*
X208400Y361200D03*
X233400Y361200D03*
X233400Y370700D03*
X233400Y380200D03*
D14*
X518980Y125058D03*
X518980Y137758D03*
X518980Y150458D03*
X518980Y163158D03*
X464740Y163158D03*
X464740Y150458D03*
X464740Y137758D03*
X464740Y125058D03*
D10*
X554000Y92576D03*
X554000Y109576D03*
X535000Y92776D03*
X535000Y109776D03*
X554000Y149300D03*
X554000Y132300D03*
X126000Y362900D03*
X126000Y379900D03*
X150000Y379900D03*
X150000Y362900D03*
X305000Y386500D03*
X305000Y369500D03*
D15*
X211000Y291500D03*
X211000Y326500D03*
D16*
X178000Y299500D03*
X178000Y326500D03*
D10*
X152000Y309500D03*
X152000Y326500D03*
X129000Y309500D03*
X129000Y326500D03*
D17*
X295000Y280000D03*
X295000Y342000D03*
D18*
X595000Y432000D03*
X595000Y388000D03*
D19*
X464152Y191000D03*
X481152Y191000D03*
D20*
X209956Y65224D03*
X219456Y65224D03*
X228956Y65224D03*
X228956Y90224D03*
X219456Y90224D03*
X209956Y90224D03*
D10*
X182372Y87748D03*
X182372Y70748D03*
X257048Y86732D03*
X257048Y69732D03*
D21*
X212108Y16764D03*
X229108Y16764D03*
X246108Y16764D03*
M02*
