M48
;GenerationSoftware,Autodesk,EAGLE,9.5.1*%
;CreationDate,2020-06-08T04:31:12Z*%
FMAT,2
ICI,OFF
METRIC,TZ,000.000
T8C0.500
T7C0.550
T6C1.000
T5C1.016
T4C1.100
T3C1.118
T2C1.300
T1C3.000
%
G90
M71
T1
X67300Y47000
X4100Y47000
X67300Y4000
X4100Y4000
T2
X49490Y27620
T3
X3600Y18610
X3600Y14800
X3600Y10990
T4
X33900Y28100
X11900Y42100
X11900Y28100
X33900Y42100
T5
X68826Y32209
X68826Y34749
X68826Y37289
X55677Y2692
X53137Y2692
X50597Y2692
X42977Y2692
X45517Y2692
X48057Y2692
T6
X14070Y47700
X11530Y47700
X17230Y47700
X3500Y26019
X3500Y23479
X68111Y9630
X68111Y12170
X19770Y47700
X24638Y33020
X49490Y35120
X39170Y44720
X39170Y42180
X39170Y39640
X39170Y37100
X39170Y34560
X39170Y32020
X39170Y29480
X39170Y26940
X39170Y24400
X39170Y21860
X39170Y19320
X39170Y16780
X39170Y14240
X39170Y11700
X39170Y9160
X39170Y6620
X59490Y6620
X59490Y9160
X59490Y11700
X59490Y14240
X59490Y16780
X59490Y19320
X59490Y21860
X59490Y24400
X59490Y26940
X59490Y29480
X59490Y32020
X59490Y34560
X29758Y3840
X24638Y30480
X24638Y27940
X24638Y25400
X24638Y22860
X67310Y27178
X67310Y24638
X67310Y22098
X67310Y19558
X67310Y17018
X67310Y14478
X3490Y41506
X3490Y38966
X3490Y36426
X11486Y20550
X11486Y18010
X11486Y15470
X11486Y12930
X11486Y10390
X11486Y7850
X33076Y18010
X33076Y15470
X33076Y12930
X33076Y10390
X33076Y7850
X33076Y5310
X29758Y22890
X27218Y22890
X18328Y22890
X18328Y3840
X27218Y3840
X15788Y3840
X15788Y22890
X3500Y32422
X3500Y29882
T7
X54200Y38900
X45246Y39205
X23300Y47000
X46685Y39776
X53035Y39776
X26975Y34138
X65200Y10900
X10900Y36300
X29870Y7315
X20980Y10668
X45883Y20726
X19253Y10668
X12294Y22911
X11227Y22911
X35904Y17562
X36752Y15550
X35601Y14240
X10100Y22900
X59538Y45974
X33274Y36881
X1496Y20168
X17323Y12192
X27000Y42089
X9195Y19304
T8
X35814Y19609
M30